<svg xmlns="http://www.w3.org/2000/svg" xmlns:v="https://svgstorm.com"
viewBox = "0 0 905 727"
width="905"
height="727">
<g fill="None" fill-opacity="0.0" stroke="#000000" stroke-opacity="0.00" stroke-width="0.3"><path d="
M 0.00 727.00 
L 905.00 727.00
L 905.00 0.00
L 0.00 0.00
L 0.00 727.00
M 751.00 3.00 
C 772.63 4.17 789.80 18.63 806.25 32.75 C 822.70 46.87 829.64 71.29 833.00 92.00
C 833.93 97.74 834.00 104.58 834.00 111.00
C 834.00 115.62 834.37 120.40 834.00 125.00
C 837.87 165.03 836.75 210.57 834.00 251.00
C 833.51 258.26 834.00 265.72 834.00 273.00
C 834.00 279.18 834.80 286.64 833.00 292.00
C 832.57 293.28 833.13 294.89 832.00 296.00
C 811.64 287.27 796.45 274.88 776.78 264.22 C 757.10 253.57 728.59 250.83 706.00 248.00
C 694.74 247.39 683.28 248.00 672.00 248.00
C 647.74 248.00 626.83 256.51 604.00 261.00
C 578.54 266.00 551.29 260.46 525.00 262.00 C 498.71 263.54 471.58 261.43 445.00 262.00 C 418.43 262.57 390.68 262.00 364.00 262.00
C 315.33 262.00 266.67 261.99 218.00 262.00
C 216.35 262.00 214.64 262.14 213.00 262.00
C 175.75 265.96 135.13 263.00 97.00 263.00
C 88.00 263.00 79.00 263.00 70.00 263.00
C 65.78 263.00 60.85 264.41 57.00 264.00
C 58.24 283.70 55.00 305.37 56.00 326.00 C 57.00 346.63 56.00 368.28 56.00 389.00
C 56.00 405.67 56.00 422.33 56.00 439.00
C 56.00 464.73 55.62 500.25 56.00 525.00 C 56.38 549.75 74.14 569.19 97.00 571.00
C 131.73 573.76 167.35 570.64 202.00 573.00
C 216.84 574.01 232.12 573.00 247.00 573.00
C 252.33 573.00 257.67 573.00 263.00 573.00
C 277.53 573.00 292.52 572.71 307.00 573.00 C 321.48 573.29 336.68 572.22 351.00 573.00 C 365.32 573.78 381.08 571.20 395.00 573.00 C 408.92 574.80 426.71 568.64 439.00 574.00
C 446.25 577.17 445.43 589.23 448.93 596.07 C 452.42 602.91 454.10 613.38 456.00 621.00
C 450.97 623.98 444.76 622.77 439.00 623.00
C 435.72 623.00 432.26 622.68 429.00 623.00
C 396.85 626.11 361.97 624.00 329.00 624.00
C 317.67 624.00 306.33 624.00 295.00 624.00
C 291.00 624.00 287.00 624.00 283.00 624.00
C 220.50 624.00 159.12 623.98 97.00 624.00
C 95.34 624.00 93.66 624.03 92.00 624.00
C 73.06 623.65 54.19 612.12 40.00 600.00
C 36.29 596.83 33.88 593.44 31.00 590.00
C 17.79 578.93 12.40 561.78 7.00 546.00
C -0.28 524.73 6.60 498.37 5.00 475.00 C 3.40 451.63 5.00 424.69 5.00 401.00
C 5.00 391.33 5.00 381.67 5.00 372.00
C 5.00 292.11 5.00 212.26 5.00 133.00
C 5.00 130.00 5.00 127.00 5.00 124.00
C 5.00 116.31 5.33 107.93 6.00 101.00
C 3.96 79.96 13.42 59.58 25.00 44.00
C 26.23 42.35 27.48 40.64 29.00 39.00
C 39.11 28.07 45.41 22.23 58.70 14.70 C 71.98 7.16 87.39 5.51 103.00 4.00
C 108.37 3.48 114.95 3.00 121.00 3.00
C 125.33 3.00 129.67 3.00 134.00 3.00
C 140.58 3.00 147.45 3.58 154.00 3.00
C 219.37 -2.75 285.92 3.51 352.00 2.00 C 418.08 0.49 485.79 1.75 552.00 2.00 C 618.21 2.25 685.22 -0.57 751.00 3.00
M 708.00 290.00 
C 741.46 295.88 776.14 303.98 803.75 324.25 C 831.36 344.52 849.36 361.03 867.92 390.08 C 886.47 419.13 895.63 454.17 899.00 489.00
C 900.24 501.78 900.83 516.92 899.00 530.00
C 890.54 590.62 864.68 643.31 815.00 681.00
C 813.38 682.23 811.79 683.76 810.00 685.00
C 781.52 704.74 751.03 716.84 716.00 723.00
C 710.49 723.97 704.76 723.46 699.00 724.00
C 688.86 724.95 677.74 724.94 668.00 724.00
C 632.98 727.29 597.60 708.37 568.92 691.08 C 540.24 673.79 523.28 651.49 503.70 624.30 C 484.11 597.12 475.18 557.85 472.00 524.00
C 471.70 520.83 471.00 517.51 471.00 514.00
C 471.00 458.06 488.90 398.69 527.75 359.75 C 566.61 320.82 612.64 289.00 669.00 289.00
C 676.00 289.00 683.00 289.00 690.00 289.00
C 691.33 289.00 692.67 289.00 694.00 289.00
C 698.90 289.00 703.44 289.20 708.00 290.00
M 350.00 380.00 
C 343.00 380.00 336.00 380.00 329.00 380.00
C 327.69 380.00 326.30 379.87 325.00 380.00
C 270.38 385.37 212.81 380.00 158.00 380.00
C 141.78 380.00 119.57 385.62 111.23 369.77 C 102.88 353.92 110.91 338.44 128.00 336.00
C 139.17 334.40 152.10 335.00 164.00 335.00
C 223.67 335.00 283.33 335.00 343.00 335.00
C 353.50 335.00 367.69 332.27 375.25 340.75 C 382.80 349.24 383.88 359.24 379.08 370.08 C 374.27 380.91 360.43 380.00 350.00 380.00 Z"/>
</g>
<g fill="None" fill-opacity="0.0" stroke="#FFFFFF" stroke-opacity="0.38" stroke-width="0.3"><path d="
M 154.00 3.00 
C 154.73 3.16 155.74 3.89 157.00 4.00
C 196.36 7.37 236.49 2.49 276.00 4.00 C 315.51 5.51 355.43 3.34 395.00 4.00 C 434.57 4.66 474.45 3.74 514.00 4.00 C 553.55 4.26 593.54 3.98 633.00 4.00 C 672.46 4.02 712.43 4.65 751.00 3.00
C 685.22 -0.57 618.21 2.25 552.00 2.00 C 485.79 1.75 418.08 0.49 352.00 2.00 C 285.92 3.51 219.37 -2.75 154.00 3.00 Z"/>
</g>
<g fill="None" fill-opacity="0.0" stroke="#FFFFFF" stroke-opacity="0.29" stroke-width="0.3"><path d="
M 103.00 4.00 
C 108.92 4.57 116.37 5.65 123.00 5.00
C 122.92 3.74 120.94 4.44 121.00 3.00
C 114.95 3.00 108.37 3.48 103.00 4.00 Z"/>
</g>
<g fill="None" fill-opacity="0.0" stroke="#FFFFFF" stroke-opacity="0.99" stroke-width="0.3"><path d="
M 103.00 4.00 
C 87.39 5.51 71.98 7.16 58.70 14.70 C 45.41 22.23 39.11 28.07 29.00 39.00
C 27.79 41.51 26.89 42.62 25.00 44.00
C 13.42 59.58 3.96 79.96 6.00 101.00
C 6.65 107.67 10.32 126.14 6.00 132.00
C 5.78 132.30 5.05 132.77 5.00 133.00
C 5.00 212.26 5.00 292.11 5.00 372.00
C 5.22 369.72 6.91 365.99 6.00 363.00
C 8.33 413.10 6.33 465.15 7.00 516.00
C 7.00 525.61 6.12 537.64 7.00 546.00
C 12.40 561.78 17.79 578.93 31.00 590.00
C 35.14 593.47 37.95 596.88 40.00 600.00
C 54.19 612.12 73.06 623.65 92.00 624.00
C 92.47 623.93 91.99 622.73 94.04 622.04 C 96.08 621.34 96.65 623.93 97.00 624.00
C 159.12 623.98 220.50 624.00 283.00 624.00
C 283.50 623.87 284.03 623.12 285.00 623.00
C 296.69 618.23 317.87 622.00 331.00 622.00
C 346.97 622.00 363.03 621.12 379.00 622.00 C 394.97 622.88 412.18 619.72 428.00 622.00
C 429.70 621.84 431.58 621.57 434.00 621.00 C 436.42 620.43 438.42 622.88 439.00 623.00
C 444.76 622.77 450.97 623.98 456.00 621.00
C 454.10 613.38 452.42 602.91 448.93 596.07 C 445.43 589.23 446.25 577.17 439.00 574.00
C 430.31 572.41 418.90 576.35 409.00 575.00 C 399.10 573.65 388.22 575.58 378.00 575.00 C 367.78 574.42 356.33 575.25 346.00 575.00 C 335.67 574.75 325.33 575.07 315.00 575.00 C 304.67 574.93 294.32 574.94 284.00 575.00 C 273.68 575.06 262.53 575.23 253.00 574.00
C 250.88 573.94 248.43 573.16 247.00 573.00
C 232.12 573.00 216.84 574.01 202.00 573.00
C 193.99 573.78 184.75 574.40 176.00 574.00 C 167.25 573.61 157.74 574.39 149.00 574.00 C 140.26 573.61 130.56 574.64 122.00 574.00 C 113.44 573.36 103.55 573.15 97.00 571.00
C 74.14 569.19 56.38 549.75 56.00 525.00 C 55.62 500.25 56.00 464.73 56.00 439.00
C 55.87 438.50 55.12 437.97 55.00 437.00
C 52.58 431.08 54.42 423.90 54.00 417.00 C 53.58 410.10 54.20 402.04 54.00 395.00 C 53.80 387.96 54.09 381.12 54.00 374.00 C 53.91 366.88 54.05 359.15 54.00 352.00 C 53.95 344.85 54.03 338.16 54.00 331.00 C 53.97 323.84 54.04 316.15 54.00 309.00 C 53.96 301.85 54.07 295.12 54.00 288.00 C 53.93 280.88 54.15 273.06 54.00 266.00 C 53.85 258.94 57.80 264.09 57.00 264.00
C 60.85 264.41 65.78 263.00 70.00 263.00
C 69.39 262.85 67.42 261.73 67.00 261.00
C 77.67 261.00 88.33 261.00 99.00 261.00
C 136.72 261.00 175.76 258.82 213.00 262.00
C 214.64 262.14 216.35 262.00 218.00 262.00
C 220.90 261.21 229.80 259.07 237.00 260.00 C 244.20 260.93 252.50 259.58 260.00 260.00 C 267.50 260.42 275.32 259.82 283.00 260.00 C 290.68 260.18 299.27 259.91 307.00 260.00 C 314.73 260.09 322.28 259.96 330.00 260.00 C 337.72 260.04 345.26 259.98 353.00 260.00 C 360.74 260.02 368.18 259.99 376.00 260.00 C 383.82 260.01 392.14 260.00 400.00 260.00
C 411.43 260.00 422.54 260.00 434.00 260.00 C 445.46 260.00 457.53 260.01 469.00 260.00 C 480.47 259.99 491.56 260.01 503.00 260.00 C 514.44 259.99 526.62 260.03 538.00 260.00 C 549.38 259.97 560.00 260.24 571.00 259.00 C 582.00 257.76 595.36 260.12 604.00 261.00
C 626.83 256.51 647.74 248.00 672.00 248.00
C 673.02 247.74 682.96 244.28 688.00 246.00 C 693.04 247.72 693.66 246.16 698.00 246.00 C 702.34 245.84 703.76 247.35 706.00 248.00
C 728.59 250.83 757.10 253.57 776.78 264.22 C 796.45 274.88 811.64 287.27 832.00 296.00
C 833.13 294.89 832.57 293.28 833.00 292.00
C 833.48 286.14 830.56 277.67 832.00 271.00
C 833.26 271.08 832.56 273.06 834.00 273.00
C 834.00 265.72 833.51 258.26 834.00 251.00
C 830.14 211.15 830.81 165.22 834.00 125.00
C 834.37 120.40 834.00 115.62 834.00 111.00
C 832.93 105.90 832.73 98.36 833.00 92.00
C 829.64 71.29 822.70 46.87 806.25 32.75 C 789.80 18.63 772.63 4.17 751.00 3.00
C 712.43 4.65 672.46 4.02 633.00 4.00 C 593.54 3.98 553.55 4.26 514.00 4.00 C 474.45 3.74 434.57 4.66 395.00 4.00 C 355.43 3.34 315.51 5.51 276.00 4.00 C 236.49 2.49 196.36 7.37 157.00 4.00
C 149.17 4.76 141.51 4.07 134.00 3.00
C 129.67 3.00 125.33 3.00 121.00 3.00
C 120.94 4.44 122.92 3.74 123.00 5.00
C 116.37 5.65 108.92 4.57 103.00 4.00
M 151.00 55.00 
C 154.32 54.87 157.68 55.00 161.00 55.00
C 192.17 51.98 226.01 54.00 258.00 54.00
C 298.73 54.00 340.36 53.10 381.00 54.00 C 421.64 54.90 463.35 51.16 503.00 55.00
C 530.98 55.00 560.14 54.51 588.00 55.00 C 615.86 55.49 646.67 53.71 674.00 55.00 C 701.33 56.29 730.95 50.15 754.89 59.11 C 778.84 68.06 783.00 94.10 783.00 117.00
C 784.05 121.98 785.91 129.71 785.00 137.00 C 784.09 144.29 785.68 152.61 785.00 160.00
C 762.83 159.33 739.34 161.33 718.00 159.00
C 689.33 159.00 660.67 159.00 632.00 159.00
C 628.92 159.30 624.75 160.00 621.00 160.00
C 609.09 161.15 595.62 161.00 583.00 161.00
C 530.00 161.00 477.00 161.00 424.00 161.00
C 417.67 161.00 411.33 161.00 405.00 161.00
C 369.59 164.43 331.25 162.00 295.00 162.00
C 275.46 162.00 255.49 162.09 236.00 162.00 C 216.51 161.91 196.33 162.25 177.00 162.00 C 157.67 161.75 137.91 163.46 120.00 160.00
C 110.49 160.00 100.46 159.08 91.00 160.00
C 79.79 161.08 66.93 161.27 55.00 161.00
C 55.50 151.65 54.33 141.25 55.00 132.00 C 55.67 122.75 52.85 110.73 57.00 104.00
C 57.00 80.92 76.02 56.48 100.00 56.00
C 106.48 54.44 116.34 53.76 125.00 54.00 C 133.66 54.24 143.08 54.23 151.00 55.00 Z"/>
</g>
<g fill="None" fill-opacity="0.0" stroke="#FFFFFF" stroke-opacity="0.57" stroke-width="0.3"><path d="
M 157.00 4.00 
C 155.74 3.89 154.73 3.16 154.00 3.00
C 147.45 3.58 140.58 3.00 134.00 3.00
C 141.51 4.07 149.17 4.76 157.00 4.00 Z"/>
</g>
<g fill="None" fill-opacity="0.0" stroke="#FFFFFF" stroke-opacity="0.42" stroke-width="0.3"><path d="
M 25.00 44.00 
C 26.89 42.62 27.79 41.51 29.00 39.00
C 27.48 40.64 26.23 42.35 25.00 44.00 Z"/>
</g>
<g fill="None" fill-opacity="0.0" stroke="#FFFFFF" stroke-opacity="0.40" stroke-width="0.3"><path d="
M 100.00 56.00 
C 117.04 55.66 134.30 55.64 151.00 55.00
C 143.08 54.23 133.66 54.24 125.00 54.00 C 116.34 53.76 106.48 54.44 100.00 56.00 Z"/>
</g>
<g fill="None" fill-opacity="0.0" stroke="#FFFFFF" stroke-opacity="0.34" stroke-width="0.3"><path d="
M 161.00 55.00 
C 193.33 55.00 225.67 55.00 258.00 55.00
C 257.96 55.00 258.00 54.00 258.00 54.00
C 226.01 54.00 192.17 51.98 161.00 55.00 Z"/>
</g>
<g fill="None" fill-opacity="0.0" stroke="#FFFFFF" stroke-opacity="0.20" stroke-width="0.3"><path d="
M 258.00 55.00 
C 339.67 55.00 421.33 55.00 503.00 55.00
C 463.35 51.16 421.64 54.90 381.00 54.00 C 340.36 53.10 298.73 54.00 258.00 54.00
C 258.00 54.00 257.96 55.00 258.00 55.00 Z"/>
</g>
<g fill="None" fill-opacity="0.0" stroke="#000000" stroke-opacity="0.00" stroke-width="0.3"><path d="
M 100.00 56.00 
C 76.02 56.48 57.00 80.92 57.00 104.00
C 57.00 122.33 57.00 140.67 57.00 159.00
C 68.17 159.67 80.66 157.67 91.00 160.00
C 100.46 159.08 110.49 160.00 120.00 160.00
C 187.00 160.00 254.00 160.00 321.00 160.00
C 332.81 160.00 345.25 161.14 357.00 160.00
C 395.54 156.27 435.51 159.84 475.00 159.00 C 514.50 158.16 555.38 159.00 595.00 159.00
C 607.33 159.00 619.67 159.00 632.00 159.00
C 660.67 159.00 689.33 159.00 718.00 159.00
C 739.85 159.00 761.85 157.05 784.00 158.00
C 781.76 144.82 783.60 130.59 783.00 117.00
C 783.00 94.10 778.84 68.06 754.89 59.11 C 730.95 50.15 701.33 56.29 674.00 55.00 C 646.67 53.71 615.86 55.49 588.00 55.00 C 560.14 54.51 530.98 55.00 503.00 55.00
C 421.33 55.00 339.67 55.00 258.00 55.00
C 225.67 55.00 193.33 55.00 161.00 55.00
C 157.68 55.00 154.32 54.87 151.00 55.00
C 134.30 55.64 117.04 55.66 100.00 56.00 Z"/>
</g>
<g fill="None" fill-opacity="0.0" stroke="#FFFFFF" stroke-opacity="0.39" stroke-width="0.3"><path d="
M 834.00 111.00 
C 834.00 104.58 833.93 97.74 833.00 92.00
C 832.73 98.36 832.93 105.90 834.00 111.00 Z"/>
</g>
<g fill="None" fill-opacity="0.0" stroke="#FFFFFF" stroke-opacity="0.44" stroke-width="0.3"><path d="
M 5.00 124.00 
C 5.21 126.15 6.41 129.12 6.00 132.00
C 10.32 126.14 6.65 107.67 6.00 101.00
C 5.33 107.93 5.00 116.31 5.00 124.00 Z"/>
</g>
<g fill="None" fill-opacity="0.0" stroke="#FFFFFF" stroke-opacity="0.33" stroke-width="0.3"><path d="
M 91.00 160.00 
C 80.66 157.67 68.17 159.67 57.00 159.00
C 57.00 140.67 57.00 122.33 57.00 104.00
C 52.85 110.73 55.67 122.75 55.00 132.00 C 54.33 141.25 55.50 151.65 55.00 161.00
C 66.93 161.27 79.79 161.08 91.00 160.00 Z"/>
</g>
<g fill="None" fill-opacity="0.0" stroke="#FFFFFF" stroke-opacity="0.34" stroke-width="0.3"><path d="
M 718.00 159.00 
C 739.34 161.33 762.83 159.33 785.00 160.00
C 785.68 152.61 784.09 144.29 785.00 137.00 C 785.91 129.71 784.05 121.98 783.00 117.00
C 783.60 130.59 781.76 144.82 784.00 158.00
C 761.85 157.05 739.85 159.00 718.00 159.00 Z"/>
</g>
<g fill="None" fill-opacity="0.0" stroke="#FFFFFF" stroke-opacity="0.20" stroke-width="0.3"><path d="
M 5.00 133.00 
C 5.05 132.77 5.78 132.30 6.00 132.00
C 6.41 129.12 5.21 126.15 5.00 124.00
C 5.00 127.00 5.00 130.00 5.00 133.00 Z"/>
</g>
<g fill="None" fill-opacity="0.0" stroke="#FFFFFF" stroke-opacity="0.38" stroke-width="0.3"><path d="
M 834.00 251.00 
C 836.75 210.57 837.87 165.03 834.00 125.00
C 830.81 165.22 830.14 211.15 834.00 251.00 Z"/>
</g>
<g fill="None" fill-opacity="0.0" stroke="#FFFFFF" stroke-opacity="0.33" stroke-width="0.3"><path d="
M 357.00 160.00 
C 365.31 160.80 374.99 161.00 384.00 161.00
C 396.57 159.78 411.50 159.79 424.00 161.00
C 477.00 161.00 530.00 161.00 583.00 161.00
C 586.40 160.67 590.92 160.00 595.00 160.00
C 594.96 160.00 595.00 159.00 595.00 159.00
C 555.38 159.00 514.50 158.16 475.00 159.00 C 435.51 159.84 395.54 156.27 357.00 160.00 Z"/>
</g>
<g fill="None" fill-opacity="0.0" stroke="#FFFFFF" stroke-opacity="0.19" stroke-width="0.3"><path d="
M 595.00 160.00 
C 603.67 160.00 612.33 160.00 621.00 160.00
C 624.75 160.00 628.92 159.30 632.00 159.00
C 619.67 159.00 607.33 159.00 595.00 159.00
C 595.00 159.00 594.96 160.00 595.00 160.00 Z"/>
</g>
<g fill="None" fill-opacity="0.0" stroke="#FFFFFF" stroke-opacity="0.46" stroke-width="0.3"><path d="
M 295.00 162.00 
C 302.81 161.24 313.26 160.75 321.00 160.00
C 254.00 160.00 187.00 160.00 120.00 160.00
C 137.91 163.46 157.67 161.75 177.00 162.00 C 196.33 162.25 216.51 161.91 236.00 162.00 C 255.49 162.09 275.46 162.00 295.00 162.00 Z"/>
</g>
<g fill="None" fill-opacity="0.0" stroke="#FFFFFF" stroke-opacity="0.76" stroke-width="0.3"><path d="
M 295.00 162.00 
C 331.25 162.00 369.59 164.43 405.00 161.00
C 398.00 161.00 391.00 161.00 384.00 161.00
C 374.99 161.00 365.31 160.80 357.00 160.00
C 345.25 161.14 332.81 160.00 321.00 160.00
C 313.26 160.75 302.81 161.24 295.00 162.00 Z"/>
</g>
<g fill="None" fill-opacity="0.0" stroke="#FFFFFF" stroke-opacity="0.51" stroke-width="0.3"><path d="
M 384.00 161.00 
C 391.00 161.00 398.00 161.00 405.00 161.00
C 411.33 161.00 417.67 161.00 424.00 161.00
C 411.50 159.79 396.57 159.78 384.00 161.00 Z"/>
</g>
<g fill="None" fill-opacity="0.0" stroke="#FFFFFF" stroke-opacity="0.85" stroke-width="0.3"><path d="
M 583.00 161.00 
C 595.62 161.00 609.09 161.15 621.00 160.00
C 612.33 160.00 603.67 160.00 595.00 160.00
C 590.92 160.00 586.40 160.67 583.00 161.00 Z"/>
</g>
<g fill="None" fill-opacity="0.0" stroke="#FFFFFF" stroke-opacity="0.41" stroke-width="0.3"><path d="
M 672.00 248.00 
C 683.28 248.00 694.74 247.39 706.00 248.00
C 703.76 247.35 702.34 245.84 698.00 246.00 C 693.66 246.16 693.04 247.72 688.00 246.00 C 682.96 244.28 673.02 247.74 672.00 248.00 Z"/>
</g>
<g fill="None" fill-opacity="0.0" stroke="#FFFFFF" stroke-opacity="0.32" stroke-width="0.3"><path d="
M 400.00 260.00 
C 388.89 261.08 375.04 260.93 364.00 262.00
C 390.68 262.00 418.43 262.57 445.00 262.00 C 471.58 261.43 498.71 263.54 525.00 262.00 C 551.29 260.46 578.54 266.00 604.00 261.00
C 595.36 260.12 582.00 257.76 571.00 259.00 C 560.00 260.24 549.38 259.97 538.00 260.00 C 526.62 260.03 514.44 259.99 503.00 260.00 C 491.56 260.01 480.47 259.99 469.00 260.00 C 457.53 260.01 445.46 260.00 434.00 260.00 C 422.54 260.00 411.43 260.00 400.00 260.00 Z"/>
</g>
<g fill="None" fill-opacity="0.0" stroke="#FFFFFF" stroke-opacity="0.53" stroke-width="0.3"><path d="
M 218.00 262.00 
C 266.67 261.99 315.33 262.00 364.00 262.00
C 375.04 260.93 388.89 261.08 400.00 260.00
C 392.14 260.00 383.82 260.01 376.00 260.00 C 368.18 259.99 360.74 260.02 353.00 260.00 C 345.26 259.98 337.72 260.04 330.00 260.00 C 322.28 259.96 314.73 260.09 307.00 260.00 C 299.27 259.91 290.68 260.18 283.00 260.00 C 275.32 259.82 267.50 260.42 260.00 260.00 C 252.50 259.58 244.20 260.93 237.00 260.00 C 229.80 259.07 220.90 261.21 218.00 262.00 Z"/>
</g>
<g fill="None" fill-opacity="0.0" stroke="#FFFFFF" stroke-opacity="0.58" stroke-width="0.3"><path d="
M 70.00 263.00 
C 79.00 263.00 88.00 263.00 97.00 263.00
C 97.46 262.84 98.61 261.14 99.00 261.00
C 88.33 261.00 77.67 261.00 67.00 261.00
C 67.42 261.73 69.39 262.85 70.00 263.00 Z"/>
</g>
<g fill="None" fill-opacity="0.0" stroke="#FFFFFF" stroke-opacity="0.35" stroke-width="0.3"><path d="
M 97.00 263.00 
C 135.13 263.00 175.75 265.96 213.00 262.00
C 175.76 258.82 136.72 261.00 99.00 261.00
C 98.61 261.14 97.46 262.84 97.00 263.00 Z"/>
</g>
<g fill="None" fill-opacity="0.0" stroke="#FFFFFF" stroke-opacity="0.47" stroke-width="0.3"><path d="
M 55.00 437.00 
C 53.13 421.84 54.61 403.41 56.00 389.00
C 56.00 368.28 57.00 346.63 56.00 326.00 C 55.00 305.37 58.24 283.70 57.00 264.00
C 57.80 264.09 53.85 258.94 54.00 266.00 C 54.15 273.06 53.93 280.88 54.00 288.00 C 54.07 295.12 53.96 301.85 54.00 309.00 C 54.04 316.15 53.97 323.84 54.00 331.00 C 54.03 338.16 53.95 344.85 54.00 352.00 C 54.05 359.15 53.91 366.88 54.00 374.00 C 54.09 381.12 53.80 387.96 54.00 395.00 C 54.20 402.04 53.58 410.10 54.00 417.00 C 54.42 423.90 52.58 431.08 55.00 437.00 Z"/>
</g>
<g fill="None" fill-opacity="0.0" stroke="#FFFFFF" stroke-opacity="0.41" stroke-width="0.3"><path d="
M 833.00 292.00 
C 834.80 286.64 834.00 279.18 834.00 273.00
C 832.56 273.06 833.26 271.08 832.00 271.00
C 830.56 277.67 833.48 286.14 833.00 292.00 Z"/>
</g>
<g fill="None" fill-opacity="0.0" stroke="#FFFFFF" stroke-opacity="0.96" stroke-width="0.3"><path d="
M 471.00 514.00 
C 471.08 514.40 473.17 515.77 473.00 518.00 C 472.82 520.24 472.14 522.51 472.00 524.00
C 475.18 557.85 484.11 597.12 503.70 624.30 C 523.28 651.49 540.24 673.79 568.92 691.08 C 597.60 708.37 632.98 727.29 668.00 724.00
C 676.64 723.19 686.10 723.84 695.00 723.00
C 702.02 722.34 710.46 722.58 716.00 723.00
C 751.03 716.84 781.52 704.74 810.00 685.00
C 811.25 683.53 812.94 681.92 815.00 681.00
C 864.68 643.31 890.54 590.62 899.00 530.00
C 898.24 517.06 897.75 501.89 899.00 489.00
C 895.63 454.17 886.47 419.13 867.92 390.08 C 849.36 361.03 831.36 344.52 803.75 324.25 C 776.14 303.98 741.46 295.88 708.00 290.00
C 704.47 290.10 699.26 291.00 695.00 291.00
C 685.33 291.00 675.67 291.00 666.00 291.00
C 666.26 289.61 668.05 290.22 669.00 290.00
C 669.08 289.99 669.00 289.00 669.00 289.00
C 612.64 289.00 566.61 320.82 527.75 359.75 C 488.90 398.69 471.00 458.06 471.00 514.00
M 693.00 340.00 
C 776.43 340.00 841.60 414.08 849.00 493.00
C 851.57 500.50 851.18 509.36 849.00 516.00
C 845.78 556.54 832.21 591.69 805.00 622.00
C 806.21 620.94 807.68 619.83 809.00 619.00
C 805.51 625.54 798.44 630.82 793.00 636.00
C 792.47 634.72 793.97 634.14 794.00 633.00
C 768.22 655.70 733.98 671.62 699.00 674.00
C 690.26 676.65 678.87 676.29 671.00 674.00
C 630.96 671.83 592.65 650.88 565.25 621.75 C 537.85 592.62 521.27 548.32 521.00 508.00 C 520.74 467.67 538.01 422.71 564.90 393.90 C 591.80 365.09 629.64 340.81 670.00 340.00
C 671.21 339.71 673.79 337.62 677.00 338.00 C 680.21 338.38 683.83 338.94 687.00 338.00 C 690.17 337.06 693.59 340.15 693.00 340.00 Z"/>
</g>
<g fill="None" fill-opacity="0.0" stroke="#FFFFFF" stroke-opacity="0.24" stroke-width="0.3"><path d="
M 669.00 290.00 
C 675.92 290.63 683.86 289.84 690.00 289.00
C 683.00 289.00 676.00 289.00 669.00 289.00
C 669.00 289.00 669.08 289.99 669.00 290.00 Z"/>
</g>
<g fill="None" fill-opacity="0.0" stroke="#FFFFFF" stroke-opacity="0.78" stroke-width="0.3"><path d="
M 669.00 290.00 
C 668.05 290.22 666.26 289.61 666.00 291.00
C 675.67 291.00 685.33 291.00 695.00 291.00
C 694.55 290.80 694.30 289.16 694.00 289.00
C 692.67 289.00 691.33 289.00 690.00 289.00
C 683.86 289.84 675.92 290.63 669.00 290.00 Z"/>
</g>
<g fill="None" fill-opacity="0.0" stroke="#FFFFFF" stroke-opacity="0.33" stroke-width="0.3"><path d="
M 695.00 291.00 
C 699.26 291.00 704.47 290.10 708.00 290.00
C 703.44 289.20 698.90 289.00 694.00 289.00
C 694.30 289.16 694.55 290.80 695.00 291.00 Z"/>
</g>
<g fill="None" fill-opacity="0.0" stroke="#FFFFFF" stroke-opacity="0.39" stroke-width="0.3"><path d="
M 128.00 336.00 
C 139.48 335.97 153.39 337.00 166.00 337.00
C 165.54 336.84 164.39 335.14 164.00 335.00
C 152.10 335.00 139.17 334.40 128.00 336.00 Z"/>
</g>
<g fill="None" fill-opacity="0.0" stroke="#FFFFFF" stroke-opacity="0.59" stroke-width="0.3"><path d="
M 166.00 337.00 
C 195.36 337.00 225.74 337.79 255.00 337.00 C 284.26 336.21 315.19 339.98 343.00 335.00
C 283.33 335.00 223.67 335.00 164.00 335.00
C 164.39 335.14 165.54 336.84 166.00 337.00 Z"/>
</g>
<g fill="None" fill-opacity="0.0" stroke="#FFFFFF" stroke-opacity="0.98" stroke-width="0.3"><path d="
M 166.00 337.00 
C 153.39 337.00 139.48 335.97 128.00 336.00
C 110.91 338.44 102.88 353.92 111.23 369.77 C 119.57 385.62 141.78 380.00 158.00 380.00
C 184.59 377.43 213.58 378.59 241.00 379.00 C 268.42 379.41 298.50 376.39 325.00 380.00
C 326.30 379.87 327.69 380.00 329.00 380.00
C 330.22 379.64 332.89 377.43 336.00 378.00 C 339.11 378.58 341.98 378.86 345.00 378.00 C 348.02 377.14 350.66 380.17 350.00 380.00
C 360.43 380.00 374.27 380.91 379.08 370.08 C 383.88 359.24 382.80 349.24 375.25 340.75 C 367.69 332.27 353.50 335.00 343.00 335.00
C 315.19 339.98 284.26 336.21 255.00 337.00 C 225.74 337.79 195.36 337.00 166.00 337.00 Z"/>
</g>
<g fill="None" fill-opacity="0.0" stroke="#FFFFFF" stroke-opacity="0.41" stroke-width="0.3"><path d="
M 670.00 340.00 
C 677.66 339.85 685.34 340.00 693.00 340.00
C 693.59 340.15 690.17 337.06 687.00 338.00 C 683.83 338.94 680.21 338.38 677.00 338.00 C 673.79 337.62 671.21 339.71 670.00 340.00 Z"/>
</g>
<g fill="None" fill-opacity="0.0" stroke="#000000" stroke-opacity="0.00" stroke-width="0.3"><path d="
M 671.00 674.00 
C 680.10 674.49 689.91 674.62 699.00 674.00
C 733.98 671.62 768.22 655.70 794.00 633.00
C 797.88 629.58 801.61 625.78 805.00 622.00
C 832.21 591.69 845.78 556.54 849.00 516.00
C 849.58 508.71 849.68 500.28 849.00 493.00
C 841.60 414.08 776.43 340.00 693.00 340.00
C 685.34 340.00 677.66 339.85 670.00 340.00
C 629.64 340.81 591.80 365.09 564.90 393.90 C 538.01 422.71 520.74 467.67 521.00 508.00 C 521.27 548.32 537.85 592.62 565.25 621.75 C 592.65 650.88 630.96 671.83 671.00 674.00
M 687.00 390.00 
C 720.67 390.00 760.55 393.18 777.92 426.08 C 795.29 458.99 792.83 493.59 769.25 522.25 C 745.66 550.90 705.93 549.67 671.00 551.00
C 667.62 551.13 662.37 551.30 664.00 556.00 C 665.64 560.71 662.18 564.70 663.00 568.00
C 663.54 573.12 674.38 571.08 679.00 571.00 C 683.62 570.92 692.77 571.59 697.00 572.00
C 706.73 571.06 721.21 571.57 719.00 583.00 C 716.79 594.43 723.91 606.61 712.00 609.00 C 700.08 611.39 690.92 608.85 679.00 610.00
C 677.14 611.93 666.85 611.79 664.00 611.00
C 662.90 616.92 664.22 623.11 663.00 629.00
C 662.74 630.28 663.20 631.71 663.00 633.00
C 659.67 633.00 656.33 633.00 653.00 633.00
C 644.32 633.00 634.57 633.90 626.00 633.00 C 617.43 632.10 621.66 616.70 621.00 611.00
C 619.28 608.57 613.15 609.94 610.00 610.00 C 606.85 610.06 601.20 609.42 598.00 609.00
C 595.76 608.71 594.74 609.02 593.00 608.00
C 587.17 604.59 589.01 582.20 591.00 577.00
C 591.47 575.78 591.76 574.34 592.00 573.00
C 601.42 571.46 611.05 570.50 621.00 571.00
C 621.00 564.33 621.00 557.67 621.00 551.00
C 617.03 552.93 608.45 550.33 605.00 550.00
C 592.18 550.54 589.26 547.42 590.00 536.00 C 590.74 524.58 587.85 516.27 597.00 513.00 C 606.16 509.73 619.39 516.84 621.00 507.00 C 622.61 497.16 620.25 487.84 621.00 478.00 C 621.75 468.16 620.55 457.83 621.00 448.00 C 621.45 438.17 620.56 427.71 621.00 418.00 C 621.44 408.29 619.43 398.77 623.00 390.00
C 631.33 390.00 639.67 390.00 648.00 390.00
C 661.02 390.00 673.92 390.00 687.00 390.00 Z"/>
</g>
<g fill="None" fill-opacity="0.0" stroke="#FFFFFF" stroke-opacity="0.72" stroke-width="0.3"><path d="
M 5.00 372.00 
C 5.00 381.67 5.00 391.33 5.00 401.00
C 8.60 438.21 3.41 478.86 7.00 516.00
C 6.33 465.15 8.33 413.10 6.00 363.00
C 6.91 365.99 5.22 369.72 5.00 372.00 Z"/>
</g>
<g fill="None" fill-opacity="0.0" stroke="#FFFFFF" stroke-opacity="0.56" stroke-width="0.3"><path d="
M 329.00 380.00 
C 336.00 380.00 343.00 380.00 350.00 380.00
C 350.66 380.17 348.02 377.14 345.00 378.00 C 341.98 378.86 339.11 378.58 336.00 378.00 C 332.89 377.43 330.22 379.64 329.00 380.00 Z"/>
</g>
<g fill="None" fill-opacity="0.0" stroke="#FFFFFF" stroke-opacity="0.30" stroke-width="0.3"><path d="
M 158.00 380.00 
C 212.81 380.00 270.38 385.37 325.00 380.00
C 298.50 376.39 268.42 379.41 241.00 379.00 C 213.58 378.59 184.59 377.43 158.00 380.00 Z"/>
</g>
<g fill="None" fill-opacity="0.0" stroke="#FFFFFF" stroke-opacity="0.18" stroke-width="0.3"><path d="
M 55.00 437.00 
C 55.12 437.97 55.87 438.50 56.00 439.00
C 56.00 422.33 56.00 405.67 56.00 389.00
C 54.61 403.41 53.13 421.84 55.00 437.00 Z"/>
</g>
<g fill="None" fill-opacity="0.0" stroke="#FFFFFF" stroke-opacity="0.42" stroke-width="0.3"><path d="
M 648.00 390.00 
C 660.25 391.19 674.82 391.18 687.00 390.00
C 673.92 390.00 661.02 390.00 648.00 390.00 Z"/>
</g>
<g fill="None" fill-opacity="0.0" stroke="#FFFFFF" stroke-opacity="0.96" stroke-width="0.3"><path d="
M 605.00 550.00 
C 609.16 549.83 620.03 546.89 621.00 551.00
C 621.00 557.67 621.00 564.33 621.00 571.00
C 611.05 570.50 601.42 571.46 592.00 573.00
C 591.76 574.34 591.47 575.78 591.00 577.00
C 590.17 579.91 592.47 588.52 592.00 593.00 C 591.53 597.48 591.13 606.61 593.00 608.00
C 594.74 609.02 595.76 608.71 598.00 609.00
C 605.20 608.59 614.08 607.23 622.00 608.00
C 622.53 609.28 621.03 609.86 621.00 611.00
C 621.66 616.70 617.43 632.10 626.00 633.00 C 634.57 633.90 644.32 633.00 653.00 633.00
C 651.20 633.46 655.39 629.29 657.00 631.00 C 658.62 632.71 662.78 629.42 663.00 629.00
C 664.22 623.11 662.90 616.92 664.00 611.00
C 664.41 608.81 664.67 609.99 668.00 610.00
C 669.43 609.65 683.18 607.44 679.00 609.00
C 678.84 609.06 679.00 610.00 679.00 610.00
C 690.92 608.85 700.08 611.39 712.00 609.00 C 723.91 606.61 716.79 594.43 719.00 583.00 C 721.21 571.57 706.73 571.06 697.00 572.00
C 686.12 573.05 673.60 573.29 662.00 573.00
C 662.56 570.48 660.81 566.70 663.00 565.00
C 661.83 556.50 659.77 545.12 673.00 549.00
C 672.92 550.26 670.94 549.56 671.00 551.00
C 705.93 549.67 745.66 550.90 769.25 522.25 C 792.83 493.59 795.29 458.99 777.92 426.08 C 760.55 393.18 720.67 390.00 687.00 390.00
C 674.82 391.18 660.25 391.19 648.00 390.00
C 639.67 390.00 631.33 390.00 623.00 390.00
C 619.43 398.77 621.44 408.29 621.00 418.00 C 620.56 427.71 621.45 438.17 621.00 448.00 C 620.55 457.83 621.75 468.16 621.00 478.00 C 620.25 487.84 622.61 497.16 621.00 507.00 C 619.39 516.84 606.16 509.73 597.00 513.00 C 587.85 516.27 590.74 524.58 590.00 536.00 C 589.26 547.42 592.18 550.54 605.00 550.00
M 702.00 429.00 
C 705.28 429.00 708.74 429.32 712.00 429.00
C 713.74 428.83 713.31 428.90 716.00 428.00 C 718.69 427.10 718.08 430.04 718.00 430.00
C 740.24 433.36 750.95 456.61 746.67 478.67 C 742.39 500.73 720.25 510.13 699.00 512.00
C 695.49 513.20 696.80 512.66 691.00 514.00 C 685.20 515.34 675.93 512.70 674.00 512.00
C 670.99 511.84 665.37 511.99 664.00 509.00
C 664.00 509.75 664.28 511.32 664.00 512.00
C 663.32 513.67 661.71 507.07 662.00 504.00 C 662.29 500.93 662.82 494.64 662.00 491.00 C 661.18 487.36 663.64 481.72 664.00 480.00
C 664.00 463.00 664.00 446.00 664.00 429.00
C 668.33 429.00 672.67 429.00 677.00 429.00
C 685.76 427.94 693.29 427.44 702.00 429.00 Z"/>
</g>
<g fill="None" fill-opacity="0.0" stroke="#FFFFFF" stroke-opacity="0.19" stroke-width="0.3"><path d="
M 7.00 546.00 
C 6.12 537.64 7.00 525.61 7.00 516.00
C 3.41 478.86 8.60 438.21 5.00 401.00
C 5.00 424.69 3.40 451.63 5.00 475.00 C 6.60 498.37 -0.28 524.73 7.00 546.00 Z"/>
</g>
<g fill="None" fill-opacity="0.0" stroke="#FFFFFF" stroke-opacity="0.49" stroke-width="0.3"><path d="
M 677.00 429.00 
C 685.33 429.00 693.67 429.00 702.00 429.00
C 693.29 427.44 685.76 427.94 677.00 429.00 Z"/>
</g>
<g fill="None" fill-opacity="0.0" stroke="#FFFFFF" stroke-opacity="0.48" stroke-width="0.3"><path d="
M 712.00 429.00 
C 713.26 429.14 716.21 429.73 718.00 430.00
C 718.08 430.04 718.69 427.10 716.00 428.00 C 713.31 428.90 713.74 428.83 712.00 429.00 Z"/>
</g>
<g fill="None" fill-opacity="0.0" stroke="#000000" stroke-opacity="0.00" stroke-width="0.3"><path d="
M 664.00 480.00 
C 664.00 484.00 664.00 488.00 664.00 492.00
C 664.00 497.67 664.00 503.33 664.00 509.00
C 665.37 511.99 670.99 511.84 674.00 512.00
C 682.06 512.44 690.97 512.71 699.00 512.00
C 720.25 510.13 742.39 500.73 746.67 478.67 C 750.95 456.61 740.24 433.36 718.00 430.00
C 716.21 429.73 713.26 429.14 712.00 429.00
C 708.74 429.32 705.28 429.00 702.00 429.00
C 693.67 429.00 685.33 429.00 677.00 429.00
C 672.67 429.00 668.33 429.00 664.00 429.00
C 664.00 446.00 664.00 463.00 664.00 480.00 Z"/>
</g>
<g fill="None" fill-opacity="0.0" stroke="#FFFFFF" stroke-opacity="0.67" stroke-width="0.3"><path d="
M 664.00 512.00 
C 661.52 506.33 663.46 497.63 664.00 492.00
C 664.00 488.00 664.00 484.00 664.00 480.00
C 663.64 481.72 661.18 487.36 662.00 491.00 C 662.82 494.64 662.29 500.93 662.00 504.00 C 661.71 507.07 663.32 513.67 664.00 512.00 Z"/>
</g>
<g fill="None" fill-opacity="0.0" stroke="#FFFFFF" stroke-opacity="0.38" stroke-width="0.3"><path d="
M 899.00 530.00 
C 900.83 516.92 900.24 501.78 899.00 489.00
C 897.75 501.89 898.24 517.06 899.00 530.00 Z"/>
</g>
<g fill="None" fill-opacity="0.0" stroke="#FFFFFF" stroke-opacity="0.26" stroke-width="0.3"><path d="
M 664.00 512.00 
C 664.28 511.32 664.00 509.75 664.00 509.00
C 664.00 503.33 664.00 497.67 664.00 492.00
C 663.46 497.63 661.52 506.33 664.00 512.00 Z"/>
</g>
<g fill="None" fill-opacity="0.0" stroke="#FFFFFF" stroke-opacity="0.55" stroke-width="0.3"><path d="
M 849.00 516.00 
C 851.18 509.36 851.57 500.50 849.00 493.00
C 849.68 500.28 849.58 508.71 849.00 516.00 Z"/>
</g>
<g fill="None" fill-opacity="0.0" stroke="#FFFFFF" stroke-opacity="0.59" stroke-width="0.3"><path d="
M 699.00 512.00 
C 690.97 512.71 682.06 512.44 674.00 512.00
C 675.93 512.70 685.20 515.34 691.00 514.00 C 696.80 512.66 695.49 513.20 699.00 512.00 Z"/>
</g>
<g fill="None" fill-opacity="0.0" stroke="#FFFFFF" stroke-opacity="0.42" stroke-width="0.3"><path d="
M 472.00 524.00 
C 472.14 522.51 472.82 520.24 473.00 518.00 C 473.17 515.77 471.08 514.40 471.00 514.00
C 471.00 517.51 471.70 520.83 472.00 524.00 Z"/>
</g>
<g fill="None" fill-opacity="0.0" stroke="#FFFFFF" stroke-opacity="0.31" stroke-width="0.3"><path d="
M 605.00 550.00 
C 608.45 550.33 617.03 552.93 621.00 551.00
C 620.03 546.89 609.16 549.83 605.00 550.00 Z"/>
</g>
<g fill="None" fill-opacity="0.0" stroke="#FFFFFF" stroke-opacity="0.45" stroke-width="0.3"><path d="
M 663.00 565.00 
C 663.14 565.98 662.90 567.01 663.00 568.00
C 662.18 564.70 665.64 560.71 664.00 556.00 C 662.37 551.30 667.62 551.13 671.00 551.00
C 670.94 549.56 672.92 550.26 673.00 549.00
C 659.77 545.12 661.83 556.50 663.00 565.00 Z"/>
</g>
<g fill="None" fill-opacity="0.0" stroke="#FFFFFF" stroke-opacity="0.29" stroke-width="0.3"><path d="
M 697.00 572.00 
C 692.77 571.59 683.62 570.92 679.00 571.00 C 674.38 571.08 663.54 573.12 663.00 568.00
C 662.90 567.01 663.14 565.98 663.00 565.00
C 660.81 566.70 662.56 570.48 662.00 573.00
C 673.60 573.29 686.12 573.05 697.00 572.00 Z"/>
</g>
<g fill="None" fill-opacity="0.0" stroke="#FFFFFF" stroke-opacity="0.40" stroke-width="0.3"><path d="
M 202.00 573.00 
C 167.35 570.64 131.73 573.76 97.00 571.00
C 103.55 573.15 113.44 573.36 122.00 574.00 C 130.56 574.64 140.26 573.61 149.00 574.00 C 157.74 574.39 167.25 573.61 176.00 574.00 C 184.75 574.40 193.99 573.78 202.00 573.00 Z"/>
</g>
<g fill="None" fill-opacity="0.0" stroke="#FFFFFF" stroke-opacity="0.23" stroke-width="0.3"><path d="
M 253.00 574.00 
C 256.46 574.10 260.29 573.26 263.00 573.00
C 257.67 573.00 252.33 573.00 247.00 573.00
C 248.43 573.16 250.88 573.94 253.00 574.00 Z"/>
</g>
<g fill="None" fill-opacity="0.0" stroke="#FFFFFF" stroke-opacity="0.37" stroke-width="0.3"><path d="
M 253.00 574.00 
C 262.53 575.23 273.68 575.06 284.00 575.00 C 294.32 574.94 304.67 574.93 315.00 575.00 C 325.33 575.07 335.67 574.75 346.00 575.00 C 356.33 575.25 367.78 574.42 378.00 575.00 C 388.22 575.58 399.10 573.65 409.00 575.00 C 418.90 576.35 430.31 572.41 439.00 574.00
C 426.71 568.64 408.92 574.80 395.00 573.00 C 381.08 571.20 365.32 573.78 351.00 573.00 C 336.68 572.22 321.48 573.29 307.00 573.00 C 292.52 572.71 277.53 573.00 263.00 573.00
C 260.29 573.26 256.46 574.10 253.00 574.00 Z"/>
</g>
<g fill="None" fill-opacity="0.0" stroke="#FFFFFF" stroke-opacity="0.32" stroke-width="0.3"><path d="
M 593.00 608.00 
C 591.13 606.61 591.53 597.48 592.00 593.00 C 592.47 588.52 590.17 579.91 591.00 577.00
C 589.01 582.20 587.17 604.59 593.00 608.00 Z"/>
</g>
<g fill="None" fill-opacity="0.0" stroke="#FFFFFF" stroke-opacity="0.25" stroke-width="0.3"><path d="
M 40.00 600.00 
C 37.95 596.88 35.14 593.47 31.00 590.00
C 33.88 593.44 36.29 596.83 40.00 600.00 Z"/>
</g>
<g fill="None" fill-opacity="0.0" stroke="#FFFFFF" stroke-opacity="0.37" stroke-width="0.3"><path d="
M 598.00 609.00 
C 601.20 609.42 606.85 610.06 610.00 610.00 C 613.15 609.94 619.28 608.57 621.00 611.00
C 621.03 609.86 622.53 609.28 622.00 608.00
C 614.08 607.23 605.20 608.59 598.00 609.00 Z"/>
</g>
<g fill="None" fill-opacity="0.0" stroke="#FFFFFF" stroke-opacity="0.72" stroke-width="0.3"><path d="
M 668.00 610.00 
C 671.96 610.01 675.26 609.28 679.00 609.00
C 683.18 607.44 669.43 609.65 668.00 610.00 Z"/>
</g>
<g fill="None" fill-opacity="0.0" stroke="#FFFFFF" stroke-opacity="0.11" stroke-width="0.3"><path d="
M 664.00 611.00 
C 666.85 611.79 677.14 611.93 679.00 610.00
C 679.00 610.00 678.84 609.06 679.00 609.00
C 675.26 609.28 671.96 610.01 668.00 610.00
C 664.67 609.99 664.41 608.81 664.00 611.00 Z"/>
</g>
<g fill="None" fill-opacity="0.0" stroke="#FFFFFF" stroke-opacity="0.47" stroke-width="0.3"><path d="
M 805.00 622.00 
C 801.61 625.78 797.88 629.58 794.00 633.00
C 793.97 634.14 792.47 634.72 793.00 636.00
C 798.44 630.82 805.51 625.54 809.00 619.00
C 807.68 619.83 806.21 620.94 805.00 622.00 Z"/>
</g>
<g fill="None" fill-opacity="0.0" stroke="#FFFFFF" stroke-opacity="0.63" stroke-width="0.3"><path d="
M 428.00 622.00 
C 428.35 622.05 428.77 622.95 429.00 623.00
C 432.26 622.68 435.72 623.00 439.00 623.00
C 438.42 622.88 436.42 620.43 434.00 621.00 C 431.58 621.57 429.70 621.84 428.00 622.00 Z"/>
</g>
<g fill="None" fill-opacity="0.0" stroke="#FFFFFF" stroke-opacity="0.47" stroke-width="0.3"><path d="
M 92.00 624.00 
C 93.66 624.03 95.34 624.00 97.00 624.00
C 96.65 623.93 96.08 621.34 94.04 622.04 C 91.99 622.73 92.47 623.93 92.00 624.00 Z"/>
</g>
<g fill="None" fill-opacity="0.0" stroke="#FFFFFF" stroke-opacity="0.63" stroke-width="0.3"><path d="
M 285.00 623.00 
C 288.50 622.57 292.29 623.74 295.00 624.00
C 306.33 624.00 317.67 624.00 329.00 624.00
C 329.46 623.84 330.61 622.14 331.00 622.00
C 317.87 622.00 296.69 618.23 285.00 623.00 Z"/>
</g>
<g fill="None" fill-opacity="0.0" stroke="#FFFFFF" stroke-opacity="0.38" stroke-width="0.3"><path d="
M 329.00 624.00 
C 361.97 624.00 396.85 626.11 429.00 623.00
C 428.77 622.95 428.35 622.05 428.00 622.00
C 412.18 619.72 394.97 622.88 379.00 622.00 C 363.03 621.12 346.97 622.00 331.00 622.00
C 330.61 622.14 329.46 623.84 329.00 624.00 Z"/>
</g>
<g fill="None" fill-opacity="0.0" stroke="#FFFFFF" stroke-opacity="0.42" stroke-width="0.3"><path d="
M 283.00 624.00 
C 287.00 624.00 291.00 624.00 295.00 624.00
C 292.29 623.74 288.50 622.57 285.00 623.00
C 284.03 623.12 283.50 623.87 283.00 624.00 Z"/>
</g>
<g fill="None" fill-opacity="0.0" stroke="#FFFFFF" stroke-opacity="0.49" stroke-width="0.3"><path d="
M 653.00 633.00 
C 656.33 633.00 659.67 633.00 663.00 633.00
C 663.20 631.71 662.74 630.28 663.00 629.00
C 662.78 629.42 658.62 632.71 657.00 631.00 C 655.39 629.29 651.20 633.46 653.00 633.00 Z"/>
</g>
<g fill="None" fill-opacity="0.0" stroke="#FFFFFF" stroke-opacity="0.42" stroke-width="0.3"><path d="
M 699.00 674.00 
C 689.91 674.62 680.10 674.49 671.00 674.00
C 678.87 676.29 690.26 676.65 699.00 674.00 Z"/>
</g>
<g fill="None" fill-opacity="0.0" stroke="#FFFFFF" stroke-opacity="0.33" stroke-width="0.3"><path d="
M 810.00 685.00 
C 811.79 683.76 813.38 682.23 815.00 681.00
C 812.94 681.92 811.25 683.53 810.00 685.00 Z"/>
</g>
<g fill="None" fill-opacity="0.0" stroke="#FFFFFF" stroke-opacity="0.45" stroke-width="0.3"><path d="
M 695.00 723.00 
C 695.80 723.05 698.21 723.95 699.00 724.00
C 704.76 723.46 710.49 723.97 716.00 723.00
C 710.46 722.58 702.02 722.34 695.00 723.00 Z"/>
</g>
<g fill="None" fill-opacity="0.0" stroke="#FFFFFF" stroke-opacity="0.32" stroke-width="0.3"><path d="
M 668.00 724.00 
C 677.74 724.94 688.86 724.95 699.00 724.00
C 698.21 723.95 695.80 723.05 695.00 723.00
C 686.10 723.84 676.64 723.19 668.00 724.00 Z"/>
</g>
<g fill="#000000" fill-opacity="0.00" stroke="None">
<path d="
M 0.00 727.00 
L 905.00 727.00
L 905.00 0.00
L 0.00 0.00
L 0.00 727.00
M 751.00 3.00 
C 772.63 4.17 789.80 18.63 806.25 32.75 C 822.70 46.87 829.64 71.29 833.00 92.00
C 833.93 97.74 834.00 104.58 834.00 111.00
C 834.00 115.62 834.37 120.40 834.00 125.00
C 837.87 165.03 836.75 210.57 834.00 251.00
C 833.51 258.26 834.00 265.72 834.00 273.00
C 834.00 279.18 834.80 286.64 833.00 292.00
C 832.57 293.28 833.13 294.89 832.00 296.00
C 811.64 287.27 796.45 274.88 776.78 264.22 C 757.10 253.57 728.59 250.83 706.00 248.00
C 694.74 247.39 683.28 248.00 672.00 248.00
C 647.74 248.00 626.83 256.51 604.00 261.00
C 578.54 266.00 551.29 260.46 525.00 262.00 C 498.71 263.54 471.58 261.43 445.00 262.00 C 418.43 262.57 390.68 262.00 364.00 262.00
C 315.33 262.00 266.67 261.99 218.00 262.00
C 216.35 262.00 214.64 262.14 213.00 262.00
C 175.75 265.96 135.13 263.00 97.00 263.00
C 88.00 263.00 79.00 263.00 70.00 263.00
C 65.78 263.00 60.85 264.41 57.00 264.00
C 58.24 283.70 55.00 305.37 56.00 326.00 C 57.00 346.63 56.00 368.28 56.00 389.00
C 56.00 405.67 56.00 422.33 56.00 439.00
C 56.00 464.73 55.62 500.25 56.00 525.00 C 56.38 549.75 74.14 569.19 97.00 571.00
C 131.73 573.76 167.35 570.64 202.00 573.00
C 216.84 574.01 232.12 573.00 247.00 573.00
C 252.33 573.00 257.67 573.00 263.00 573.00
C 277.53 573.00 292.52 572.71 307.00 573.00 C 321.48 573.29 336.68 572.22 351.00 573.00 C 365.32 573.78 381.08 571.20 395.00 573.00 C 408.92 574.80 426.71 568.64 439.00 574.00
C 446.25 577.17 445.43 589.23 448.93 596.07 C 452.42 602.91 454.10 613.38 456.00 621.00
C 450.97 623.98 444.76 622.77 439.00 623.00
C 435.72 623.00 432.26 622.68 429.00 623.00
C 396.85 626.11 361.97 624.00 329.00 624.00
C 317.67 624.00 306.33 624.00 295.00 624.00
C 291.00 624.00 287.00 624.00 283.00 624.00
C 220.50 624.00 159.12 623.98 97.00 624.00
C 95.34 624.00 93.66 624.03 92.00 624.00
C 73.06 623.65 54.19 612.12 40.00 600.00
C 36.29 596.83 33.88 593.44 31.00 590.00
C 17.79 578.93 12.40 561.78 7.00 546.00
C -0.28 524.73 6.60 498.37 5.00 475.00 C 3.40 451.63 5.00 424.69 5.00 401.00
C 5.00 391.33 5.00 381.67 5.00 372.00
C 5.00 292.11 5.00 212.26 5.00 133.00
C 5.00 130.00 5.00 127.00 5.00 124.00
C 5.00 116.31 5.33 107.93 6.00 101.00
C 3.96 79.96 13.42 59.58 25.00 44.00
C 26.23 42.35 27.48 40.64 29.00 39.00
C 39.11 28.07 45.41 22.23 58.70 14.70 C 71.98 7.16 87.39 5.51 103.00 4.00
C 108.37 3.48 114.95 3.00 121.00 3.00
C 125.33 3.00 129.67 3.00 134.00 3.00
C 140.58 3.00 147.45 3.58 154.00 3.00
C 219.37 -2.75 285.92 3.51 352.00 2.00 C 418.08 0.49 485.79 1.75 552.00 2.00 C 618.21 2.25 685.22 -0.57 751.00 3.00
M 708.00 290.00 
C 741.46 295.88 776.14 303.98 803.75 324.25 C 831.36 344.52 849.36 361.03 867.92 390.08 C 886.47 419.13 895.63 454.17 899.00 489.00
C 900.24 501.78 900.83 516.92 899.00 530.00
C 890.54 590.62 864.68 643.31 815.00 681.00
C 813.38 682.23 811.79 683.76 810.00 685.00
C 781.52 704.74 751.03 716.84 716.00 723.00
C 710.49 723.97 704.76 723.46 699.00 724.00
C 688.86 724.95 677.74 724.94 668.00 724.00
C 632.98 727.29 597.60 708.37 568.92 691.08 C 540.24 673.79 523.28 651.49 503.70 624.30 C 484.11 597.12 475.18 557.85 472.00 524.00
C 471.70 520.83 471.00 517.51 471.00 514.00
C 471.00 458.06 488.90 398.69 527.75 359.75 C 566.61 320.82 612.64 289.00 669.00 289.00
C 676.00 289.00 683.00 289.00 690.00 289.00
C 691.33 289.00 692.67 289.00 694.00 289.00
C 698.90 289.00 703.44 289.20 708.00 290.00
M 350.00 380.00 
C 343.00 380.00 336.00 380.00 329.00 380.00
C 327.69 380.00 326.30 379.87 325.00 380.00
C 270.38 385.37 212.81 380.00 158.00 380.00
C 141.78 380.00 119.57 385.62 111.23 369.77 C 102.88 353.92 110.91 338.44 128.00 336.00
C 139.17 334.40 152.10 335.00 164.00 335.00
C 223.67 335.00 283.33 335.00 343.00 335.00
C 353.50 335.00 367.69 332.27 375.25 340.75 C 382.80 349.24 383.88 359.24 379.08 370.08 C 374.27 380.91 360.43 380.00 350.00 380.00 Z"/>
</g>
<g fill="#FFFFFF" fill-opacity="0.38" stroke="None">
<path d="
M 154.00 3.00 
C 154.73 3.16 155.74 3.89 157.00 4.00
C 196.36 7.37 236.49 2.49 276.00 4.00 C 315.51 5.51 355.43 3.34 395.00 4.00 C 434.57 4.66 474.45 3.74 514.00 4.00 C 553.55 4.26 593.54 3.98 633.00 4.00 C 672.46 4.02 712.43 4.65 751.00 3.00
C 685.22 -0.57 618.21 2.25 552.00 2.00 C 485.79 1.75 418.08 0.49 352.00 2.00 C 285.92 3.51 219.37 -2.75 154.00 3.00 Z"/>
</g>
<g fill="#FFFFFF" fill-opacity="0.29" stroke="None">
<path d="
M 103.00 4.00 
C 108.92 4.57 116.37 5.65 123.00 5.00
C 122.92 3.74 120.94 4.44 121.00 3.00
C 114.95 3.00 108.37 3.48 103.00 4.00 Z"/>
</g>
<g fill="#FFFFFF" fill-opacity="0.99" stroke="None">
<path d="
M 103.00 4.00 
C 87.39 5.51 71.98 7.16 58.70 14.70 C 45.41 22.23 39.11 28.07 29.00 39.00
C 27.79 41.51 26.89 42.62 25.00 44.00
C 13.42 59.58 3.96 79.96 6.00 101.00
C 6.65 107.67 10.32 126.14 6.00 132.00
C 5.78 132.30 5.05 132.77 5.00 133.00
C 5.00 212.26 5.00 292.11 5.00 372.00
C 5.22 369.72 6.91 365.99 6.00 363.00
C 8.33 413.10 6.33 465.15 7.00 516.00
C 7.00 525.61 6.12 537.64 7.00 546.00
C 12.40 561.78 17.79 578.93 31.00 590.00
C 35.14 593.47 37.95 596.88 40.00 600.00
C 54.19 612.12 73.06 623.65 92.00 624.00
C 92.47 623.93 91.99 622.73 94.04 622.04 C 96.08 621.34 96.65 623.93 97.00 624.00
C 159.12 623.98 220.50 624.00 283.00 624.00
C 283.50 623.87 284.03 623.12 285.00 623.00
C 296.69 618.23 317.87 622.00 331.00 622.00
C 346.97 622.00 363.03 621.12 379.00 622.00 C 394.97 622.88 412.18 619.72 428.00 622.00
C 429.70 621.84 431.58 621.57 434.00 621.00 C 436.42 620.43 438.42 622.88 439.00 623.00
C 444.76 622.77 450.97 623.98 456.00 621.00
C 454.10 613.38 452.42 602.91 448.93 596.07 C 445.43 589.23 446.25 577.17 439.00 574.00
C 430.31 572.41 418.90 576.35 409.00 575.00 C 399.10 573.65 388.22 575.58 378.00 575.00 C 367.78 574.42 356.33 575.25 346.00 575.00 C 335.67 574.75 325.33 575.07 315.00 575.00 C 304.67 574.93 294.32 574.94 284.00 575.00 C 273.68 575.06 262.53 575.23 253.00 574.00
C 250.88 573.94 248.43 573.16 247.00 573.00
C 232.12 573.00 216.84 574.01 202.00 573.00
C 193.99 573.78 184.75 574.40 176.00 574.00 C 167.25 573.61 157.74 574.39 149.00 574.00 C 140.26 573.61 130.56 574.64 122.00 574.00 C 113.44 573.36 103.55 573.15 97.00 571.00
C 74.14 569.19 56.38 549.75 56.00 525.00 C 55.62 500.25 56.00 464.73 56.00 439.00
C 55.87 438.50 55.12 437.97 55.00 437.00
C 52.58 431.08 54.42 423.90 54.00 417.00 C 53.58 410.10 54.20 402.04 54.00 395.00 C 53.80 387.96 54.09 381.12 54.00 374.00 C 53.91 366.88 54.05 359.15 54.00 352.00 C 53.95 344.85 54.03 338.16 54.00 331.00 C 53.97 323.84 54.04 316.15 54.00 309.00 C 53.96 301.85 54.07 295.12 54.00 288.00 C 53.93 280.88 54.15 273.06 54.00 266.00 C 53.85 258.94 57.80 264.09 57.00 264.00
C 60.85 264.41 65.78 263.00 70.00 263.00
C 69.39 262.85 67.42 261.73 67.00 261.00
C 77.67 261.00 88.33 261.00 99.00 261.00
C 136.72 261.00 175.76 258.82 213.00 262.00
C 214.64 262.14 216.35 262.00 218.00 262.00
C 220.90 261.21 229.80 259.07 237.00 260.00 C 244.20 260.93 252.50 259.58 260.00 260.00 C 267.50 260.42 275.32 259.82 283.00 260.00 C 290.68 260.18 299.27 259.91 307.00 260.00 C 314.73 260.09 322.28 259.96 330.00 260.00 C 337.72 260.04 345.26 259.98 353.00 260.00 C 360.74 260.02 368.18 259.99 376.00 260.00 C 383.82 260.01 392.14 260.00 400.00 260.00
C 411.43 260.00 422.54 260.00 434.00 260.00 C 445.46 260.00 457.53 260.01 469.00 260.00 C 480.47 259.99 491.56 260.01 503.00 260.00 C 514.44 259.99 526.62 260.03 538.00 260.00 C 549.38 259.97 560.00 260.24 571.00 259.00 C 582.00 257.76 595.36 260.12 604.00 261.00
C 626.83 256.51 647.74 248.00 672.00 248.00
C 673.02 247.74 682.96 244.28 688.00 246.00 C 693.04 247.72 693.66 246.16 698.00 246.00 C 702.34 245.84 703.76 247.35 706.00 248.00
C 728.59 250.83 757.10 253.57 776.78 264.22 C 796.45 274.88 811.64 287.27 832.00 296.00
C 833.13 294.89 832.57 293.28 833.00 292.00
C 833.48 286.14 830.56 277.67 832.00 271.00
C 833.26 271.08 832.56 273.06 834.00 273.00
C 834.00 265.72 833.51 258.26 834.00 251.00
C 830.14 211.15 830.81 165.22 834.00 125.00
C 834.37 120.40 834.00 115.62 834.00 111.00
C 832.93 105.90 832.73 98.36 833.00 92.00
C 829.64 71.29 822.70 46.87 806.25 32.75 C 789.80 18.63 772.63 4.17 751.00 3.00
C 712.43 4.65 672.46 4.02 633.00 4.00 C 593.54 3.98 553.55 4.26 514.00 4.00 C 474.45 3.74 434.57 4.66 395.00 4.00 C 355.43 3.34 315.51 5.51 276.00 4.00 C 236.49 2.49 196.36 7.37 157.00 4.00
C 149.17 4.76 141.51 4.07 134.00 3.00
C 129.67 3.00 125.33 3.00 121.00 3.00
C 120.94 4.44 122.92 3.74 123.00 5.00
C 116.37 5.65 108.92 4.57 103.00 4.00
M 151.00 55.00 
C 154.32 54.87 157.68 55.00 161.00 55.00
C 192.17 51.98 226.01 54.00 258.00 54.00
C 298.73 54.00 340.36 53.10 381.00 54.00 C 421.64 54.90 463.35 51.16 503.00 55.00
C 530.98 55.00 560.14 54.51 588.00 55.00 C 615.86 55.49 646.67 53.71 674.00 55.00 C 701.33 56.29 730.95 50.15 754.89 59.11 C 778.84 68.06 783.00 94.10 783.00 117.00
C 784.05 121.98 785.91 129.71 785.00 137.00 C 784.09 144.29 785.68 152.61 785.00 160.00
C 762.83 159.33 739.34 161.33 718.00 159.00
C 689.33 159.00 660.67 159.00 632.00 159.00
C 628.92 159.30 624.75 160.00 621.00 160.00
C 609.09 161.15 595.62 161.00 583.00 161.00
C 530.00 161.00 477.00 161.00 424.00 161.00
C 417.67 161.00 411.33 161.00 405.00 161.00
C 369.59 164.43 331.25 162.00 295.00 162.00
C 275.46 162.00 255.49 162.09 236.00 162.00 C 216.51 161.91 196.33 162.25 177.00 162.00 C 157.67 161.75 137.91 163.46 120.00 160.00
C 110.49 160.00 100.46 159.08 91.00 160.00
C 79.79 161.08 66.93 161.27 55.00 161.00
C 55.50 151.65 54.33 141.25 55.00 132.00 C 55.67 122.75 52.85 110.73 57.00 104.00
C 57.00 80.92 76.02 56.48 100.00 56.00
C 106.48 54.44 116.34 53.76 125.00 54.00 C 133.66 54.24 143.08 54.23 151.00 55.00 Z"/>
</g>
<g fill="#FFFFFF" fill-opacity="0.57" stroke="None">
<path d="
M 157.00 4.00 
C 155.74 3.89 154.73 3.16 154.00 3.00
C 147.45 3.58 140.58 3.00 134.00 3.00
C 141.51 4.07 149.17 4.76 157.00 4.00 Z"/>
</g>
<g fill="#FFFFFF" fill-opacity="0.42" stroke="None">
<path d="
M 25.00 44.00 
C 26.89 42.62 27.79 41.51 29.00 39.00
C 27.48 40.64 26.23 42.35 25.00 44.00 Z"/>
</g>
<g fill="#FFFFFF" fill-opacity="0.40" stroke="None">
<path d="
M 100.00 56.00 
C 117.04 55.66 134.30 55.64 151.00 55.00
C 143.08 54.23 133.66 54.24 125.00 54.00 C 116.34 53.76 106.48 54.44 100.00 56.00 Z"/>
</g>
<g fill="#FFFFFF" fill-opacity="0.34" stroke="None">
<path d="
M 161.00 55.00 
C 193.33 55.00 225.67 55.00 258.00 55.00
C 257.96 55.00 258.00 54.00 258.00 54.00
C 226.01 54.00 192.17 51.98 161.00 55.00 Z"/>
</g>
<g fill="#FFFFFF" fill-opacity="0.20" stroke="None">
<path d="
M 258.00 55.00 
C 339.67 55.00 421.33 55.00 503.00 55.00
C 463.35 51.16 421.64 54.90 381.00 54.00 C 340.36 53.10 298.73 54.00 258.00 54.00
C 258.00 54.00 257.96 55.00 258.00 55.00 Z"/>
</g>
<g fill="#000000" fill-opacity="0.00" stroke="None">
<path d="
M 100.00 56.00 
C 76.02 56.48 57.00 80.92 57.00 104.00
C 57.00 122.33 57.00 140.67 57.00 159.00
C 68.17 159.67 80.66 157.67 91.00 160.00
C 100.46 159.08 110.49 160.00 120.00 160.00
C 187.00 160.00 254.00 160.00 321.00 160.00
C 332.81 160.00 345.25 161.14 357.00 160.00
C 395.54 156.27 435.51 159.84 475.00 159.00 C 514.50 158.16 555.38 159.00 595.00 159.00
C 607.33 159.00 619.67 159.00 632.00 159.00
C 660.67 159.00 689.33 159.00 718.00 159.00
C 739.85 159.00 761.85 157.05 784.00 158.00
C 781.76 144.82 783.60 130.59 783.00 117.00
C 783.00 94.10 778.84 68.06 754.89 59.11 C 730.95 50.15 701.33 56.29 674.00 55.00 C 646.67 53.71 615.86 55.49 588.00 55.00 C 560.14 54.51 530.98 55.00 503.00 55.00
C 421.33 55.00 339.67 55.00 258.00 55.00
C 225.67 55.00 193.33 55.00 161.00 55.00
C 157.68 55.00 154.32 54.87 151.00 55.00
C 134.30 55.64 117.04 55.66 100.00 56.00 Z"/>
</g>
<g fill="#FFFFFF" fill-opacity="0.39" stroke="None">
<path d="
M 834.00 111.00 
C 834.00 104.58 833.93 97.74 833.00 92.00
C 832.73 98.36 832.93 105.90 834.00 111.00 Z"/>
</g>
<g fill="#FFFFFF" fill-opacity="0.44" stroke="None">
<path d="
M 5.00 124.00 
C 5.21 126.15 6.41 129.12 6.00 132.00
C 10.32 126.14 6.65 107.67 6.00 101.00
C 5.33 107.93 5.00 116.31 5.00 124.00 Z"/>
</g>
<g fill="#FFFFFF" fill-opacity="0.33" stroke="None">
<path d="
M 91.00 160.00 
C 80.66 157.67 68.17 159.67 57.00 159.00
C 57.00 140.67 57.00 122.33 57.00 104.00
C 52.85 110.73 55.67 122.75 55.00 132.00 C 54.33 141.25 55.50 151.65 55.00 161.00
C 66.93 161.27 79.79 161.08 91.00 160.00 Z"/>
</g>
<g fill="#FFFFFF" fill-opacity="0.34" stroke="None">
<path d="
M 718.00 159.00 
C 739.34 161.33 762.83 159.33 785.00 160.00
C 785.68 152.61 784.09 144.29 785.00 137.00 C 785.91 129.71 784.05 121.98 783.00 117.00
C 783.60 130.59 781.76 144.82 784.00 158.00
C 761.85 157.05 739.85 159.00 718.00 159.00 Z"/>
</g>
<g fill="#FFFFFF" fill-opacity="0.20" stroke="None">
<path d="
M 5.00 133.00 
C 5.05 132.77 5.78 132.30 6.00 132.00
C 6.41 129.12 5.21 126.15 5.00 124.00
C 5.00 127.00 5.00 130.00 5.00 133.00 Z"/>
</g>
<g fill="#FFFFFF" fill-opacity="0.38" stroke="None">
<path d="
M 834.00 251.00 
C 836.75 210.57 837.87 165.03 834.00 125.00
C 830.81 165.22 830.14 211.15 834.00 251.00 Z"/>
</g>
<g fill="#FFFFFF" fill-opacity="0.33" stroke="None">
<path d="
M 357.00 160.00 
C 365.31 160.80 374.99 161.00 384.00 161.00
C 396.57 159.78 411.50 159.79 424.00 161.00
C 477.00 161.00 530.00 161.00 583.00 161.00
C 586.40 160.67 590.92 160.00 595.00 160.00
C 594.96 160.00 595.00 159.00 595.00 159.00
C 555.38 159.00 514.50 158.16 475.00 159.00 C 435.51 159.84 395.54 156.27 357.00 160.00 Z"/>
</g>
<g fill="#FFFFFF" fill-opacity="0.19" stroke="None">
<path d="
M 595.00 160.00 
C 603.67 160.00 612.33 160.00 621.00 160.00
C 624.75 160.00 628.92 159.30 632.00 159.00
C 619.67 159.00 607.33 159.00 595.00 159.00
C 595.00 159.00 594.96 160.00 595.00 160.00 Z"/>
</g>
<g fill="#FFFFFF" fill-opacity="0.46" stroke="None">
<path d="
M 295.00 162.00 
C 302.81 161.24 313.26 160.75 321.00 160.00
C 254.00 160.00 187.00 160.00 120.00 160.00
C 137.91 163.46 157.67 161.75 177.00 162.00 C 196.33 162.25 216.51 161.91 236.00 162.00 C 255.49 162.09 275.46 162.00 295.00 162.00 Z"/>
</g>
<g fill="#FFFFFF" fill-opacity="0.76" stroke="None">
<path d="
M 295.00 162.00 
C 331.25 162.00 369.59 164.43 405.00 161.00
C 398.00 161.00 391.00 161.00 384.00 161.00
C 374.99 161.00 365.31 160.80 357.00 160.00
C 345.25 161.14 332.81 160.00 321.00 160.00
C 313.26 160.75 302.81 161.24 295.00 162.00 Z"/>
</g>
<g fill="#FFFFFF" fill-opacity="0.51" stroke="None">
<path d="
M 384.00 161.00 
C 391.00 161.00 398.00 161.00 405.00 161.00
C 411.33 161.00 417.67 161.00 424.00 161.00
C 411.50 159.79 396.57 159.78 384.00 161.00 Z"/>
</g>
<g fill="#FFFFFF" fill-opacity="0.85" stroke="None">
<path d="
M 583.00 161.00 
C 595.62 161.00 609.09 161.15 621.00 160.00
C 612.33 160.00 603.67 160.00 595.00 160.00
C 590.92 160.00 586.40 160.67 583.00 161.00 Z"/>
</g>
<g fill="#FFFFFF" fill-opacity="0.41" stroke="None">
<path d="
M 672.00 248.00 
C 683.28 248.00 694.74 247.39 706.00 248.00
C 703.76 247.35 702.34 245.84 698.00 246.00 C 693.66 246.16 693.04 247.72 688.00 246.00 C 682.96 244.28 673.02 247.74 672.00 248.00 Z"/>
</g>
<g fill="#FFFFFF" fill-opacity="0.32" stroke="None">
<path d="
M 400.00 260.00 
C 388.89 261.08 375.04 260.93 364.00 262.00
C 390.68 262.00 418.43 262.57 445.00 262.00 C 471.58 261.43 498.71 263.54 525.00 262.00 C 551.29 260.46 578.54 266.00 604.00 261.00
C 595.36 260.12 582.00 257.76 571.00 259.00 C 560.00 260.24 549.38 259.97 538.00 260.00 C 526.62 260.03 514.44 259.99 503.00 260.00 C 491.56 260.01 480.47 259.99 469.00 260.00 C 457.53 260.01 445.46 260.00 434.00 260.00 C 422.54 260.00 411.43 260.00 400.00 260.00 Z"/>
</g>
<g fill="#FFFFFF" fill-opacity="0.53" stroke="None">
<path d="
M 218.00 262.00 
C 266.67 261.99 315.33 262.00 364.00 262.00
C 375.04 260.93 388.89 261.08 400.00 260.00
C 392.14 260.00 383.82 260.01 376.00 260.00 C 368.18 259.99 360.74 260.02 353.00 260.00 C 345.26 259.98 337.72 260.04 330.00 260.00 C 322.28 259.96 314.73 260.09 307.00 260.00 C 299.27 259.91 290.68 260.18 283.00 260.00 C 275.32 259.82 267.50 260.42 260.00 260.00 C 252.50 259.58 244.20 260.93 237.00 260.00 C 229.80 259.07 220.90 261.21 218.00 262.00 Z"/>
</g>
<g fill="#FFFFFF" fill-opacity="0.58" stroke="None">
<path d="
M 70.00 263.00 
C 79.00 263.00 88.00 263.00 97.00 263.00
C 97.46 262.84 98.61 261.14 99.00 261.00
C 88.33 261.00 77.67 261.00 67.00 261.00
C 67.42 261.73 69.39 262.85 70.00 263.00 Z"/>
</g>
<g fill="#FFFFFF" fill-opacity="0.35" stroke="None">
<path d="
M 97.00 263.00 
C 135.13 263.00 175.75 265.96 213.00 262.00
C 175.76 258.82 136.72 261.00 99.00 261.00
C 98.61 261.14 97.46 262.84 97.00 263.00 Z"/>
</g>
<g fill="#FFFFFF" fill-opacity="0.47" stroke="None">
<path d="
M 55.00 437.00 
C 53.13 421.84 54.61 403.41 56.00 389.00
C 56.00 368.28 57.00 346.63 56.00 326.00 C 55.00 305.37 58.24 283.70 57.00 264.00
C 57.80 264.09 53.85 258.94 54.00 266.00 C 54.15 273.06 53.93 280.88 54.00 288.00 C 54.07 295.12 53.96 301.85 54.00 309.00 C 54.04 316.15 53.97 323.84 54.00 331.00 C 54.03 338.16 53.95 344.85 54.00 352.00 C 54.05 359.15 53.91 366.88 54.00 374.00 C 54.09 381.12 53.80 387.96 54.00 395.00 C 54.20 402.04 53.58 410.10 54.00 417.00 C 54.42 423.90 52.58 431.08 55.00 437.00 Z"/>
</g>
<g fill="#FFFFFF" fill-opacity="0.41" stroke="None">
<path d="
M 833.00 292.00 
C 834.80 286.64 834.00 279.18 834.00 273.00
C 832.56 273.06 833.26 271.08 832.00 271.00
C 830.56 277.67 833.48 286.14 833.00 292.00 Z"/>
</g>
<g fill="#FFFFFF" fill-opacity="0.96" stroke="None">
<path d="
M 471.00 514.00 
C 471.08 514.40 473.17 515.77 473.00 518.00 C 472.82 520.24 472.14 522.51 472.00 524.00
C 475.18 557.85 484.11 597.12 503.70 624.30 C 523.28 651.49 540.24 673.79 568.92 691.08 C 597.60 708.37 632.98 727.29 668.00 724.00
C 676.64 723.19 686.10 723.84 695.00 723.00
C 702.02 722.34 710.46 722.58 716.00 723.00
C 751.03 716.84 781.52 704.74 810.00 685.00
C 811.25 683.53 812.94 681.92 815.00 681.00
C 864.68 643.31 890.54 590.62 899.00 530.00
C 898.24 517.06 897.75 501.89 899.00 489.00
C 895.63 454.17 886.47 419.13 867.92 390.08 C 849.36 361.03 831.36 344.52 803.75 324.25 C 776.14 303.98 741.46 295.88 708.00 290.00
C 704.47 290.10 699.26 291.00 695.00 291.00
C 685.33 291.00 675.67 291.00 666.00 291.00
C 666.26 289.61 668.05 290.22 669.00 290.00
C 669.08 289.99 669.00 289.00 669.00 289.00
C 612.64 289.00 566.61 320.82 527.75 359.75 C 488.90 398.69 471.00 458.06 471.00 514.00
M 693.00 340.00 
C 776.43 340.00 841.60 414.08 849.00 493.00
C 851.57 500.50 851.18 509.36 849.00 516.00
C 845.78 556.54 832.21 591.69 805.00 622.00
C 806.21 620.94 807.68 619.83 809.00 619.00
C 805.51 625.54 798.44 630.82 793.00 636.00
C 792.47 634.72 793.97 634.14 794.00 633.00
C 768.22 655.70 733.98 671.62 699.00 674.00
C 690.26 676.65 678.87 676.29 671.00 674.00
C 630.96 671.83 592.65 650.88 565.25 621.75 C 537.85 592.62 521.27 548.32 521.00 508.00 C 520.74 467.67 538.01 422.71 564.90 393.90 C 591.80 365.09 629.64 340.81 670.00 340.00
C 671.21 339.71 673.79 337.62 677.00 338.00 C 680.21 338.38 683.83 338.94 687.00 338.00 C 690.17 337.06 693.59 340.15 693.00 340.00 Z"/>
</g>
<g fill="#FFFFFF" fill-opacity="0.24" stroke="None">
<path d="
M 669.00 290.00 
C 675.92 290.63 683.86 289.84 690.00 289.00
C 683.00 289.00 676.00 289.00 669.00 289.00
C 669.00 289.00 669.08 289.99 669.00 290.00 Z"/>
</g>
<g fill="#FFFFFF" fill-opacity="0.78" stroke="None">
<path d="
M 669.00 290.00 
C 668.05 290.22 666.26 289.61 666.00 291.00
C 675.67 291.00 685.33 291.00 695.00 291.00
C 694.55 290.80 694.30 289.16 694.00 289.00
C 692.67 289.00 691.33 289.00 690.00 289.00
C 683.86 289.84 675.92 290.63 669.00 290.00 Z"/>
</g>
<g fill="#FFFFFF" fill-opacity="0.33" stroke="None">
<path d="
M 695.00 291.00 
C 699.26 291.00 704.47 290.10 708.00 290.00
C 703.44 289.20 698.90 289.00 694.00 289.00
C 694.30 289.16 694.55 290.80 695.00 291.00 Z"/>
</g>
<g fill="#FFFFFF" fill-opacity="0.39" stroke="None">
<path d="
M 128.00 336.00 
C 139.48 335.97 153.39 337.00 166.00 337.00
C 165.54 336.84 164.39 335.14 164.00 335.00
C 152.10 335.00 139.17 334.40 128.00 336.00 Z"/>
</g>
<g fill="#FFFFFF" fill-opacity="0.59" stroke="None">
<path d="
M 166.00 337.00 
C 195.36 337.00 225.74 337.79 255.00 337.00 C 284.26 336.21 315.19 339.98 343.00 335.00
C 283.33 335.00 223.67 335.00 164.00 335.00
C 164.39 335.14 165.54 336.84 166.00 337.00 Z"/>
</g>
<g fill="#FFFFFF" fill-opacity="0.98" stroke="None">
<path d="
M 166.00 337.00 
C 153.39 337.00 139.48 335.97 128.00 336.00
C 110.91 338.44 102.88 353.92 111.23 369.77 C 119.57 385.62 141.78 380.00 158.00 380.00
C 184.59 377.43 213.58 378.59 241.00 379.00 C 268.42 379.41 298.50 376.39 325.00 380.00
C 326.30 379.87 327.69 380.00 329.00 380.00
C 330.22 379.64 332.89 377.43 336.00 378.00 C 339.11 378.58 341.98 378.86 345.00 378.00 C 348.02 377.14 350.66 380.17 350.00 380.00
C 360.43 380.00 374.27 380.91 379.08 370.08 C 383.88 359.24 382.80 349.24 375.25 340.75 C 367.69 332.27 353.50 335.00 343.00 335.00
C 315.19 339.98 284.26 336.21 255.00 337.00 C 225.74 337.79 195.36 337.00 166.00 337.00 Z"/>
</g>
<g fill="#FFFFFF" fill-opacity="0.41" stroke="None">
<path d="
M 670.00 340.00 
C 677.66 339.85 685.34 340.00 693.00 340.00
C 693.59 340.15 690.17 337.06 687.00 338.00 C 683.83 338.94 680.21 338.38 677.00 338.00 C 673.79 337.62 671.21 339.71 670.00 340.00 Z"/>
</g>
<g fill="#000000" fill-opacity="0.00" stroke="None">
<path d="
M 671.00 674.00 
C 680.10 674.49 689.91 674.62 699.00 674.00
C 733.98 671.62 768.22 655.70 794.00 633.00
C 797.88 629.58 801.61 625.78 805.00 622.00
C 832.21 591.69 845.78 556.54 849.00 516.00
C 849.58 508.71 849.68 500.28 849.00 493.00
C 841.60 414.08 776.43 340.00 693.00 340.00
C 685.34 340.00 677.66 339.85 670.00 340.00
C 629.64 340.81 591.80 365.09 564.90 393.90 C 538.01 422.71 520.74 467.67 521.00 508.00 C 521.27 548.32 537.85 592.62 565.25 621.75 C 592.65 650.88 630.96 671.83 671.00 674.00
M 687.00 390.00 
C 720.67 390.00 760.55 393.18 777.92 426.08 C 795.29 458.99 792.83 493.59 769.25 522.25 C 745.66 550.90 705.93 549.67 671.00 551.00
C 667.62 551.13 662.37 551.30 664.00 556.00 C 665.64 560.71 662.18 564.70 663.00 568.00
C 663.54 573.12 674.38 571.08 679.00 571.00 C 683.62 570.92 692.77 571.59 697.00 572.00
C 706.73 571.06 721.21 571.57 719.00 583.00 C 716.79 594.43 723.91 606.61 712.00 609.00 C 700.08 611.39 690.92 608.85 679.00 610.00
C 677.14 611.93 666.85 611.79 664.00 611.00
C 662.90 616.92 664.22 623.11 663.00 629.00
C 662.74 630.28 663.20 631.71 663.00 633.00
C 659.67 633.00 656.33 633.00 653.00 633.00
C 644.32 633.00 634.57 633.90 626.00 633.00 C 617.43 632.10 621.66 616.70 621.00 611.00
C 619.28 608.57 613.15 609.94 610.00 610.00 C 606.85 610.06 601.20 609.42 598.00 609.00
C 595.76 608.71 594.74 609.02 593.00 608.00
C 587.17 604.59 589.01 582.20 591.00 577.00
C 591.47 575.78 591.76 574.34 592.00 573.00
C 601.42 571.46 611.05 570.50 621.00 571.00
C 621.00 564.33 621.00 557.67 621.00 551.00
C 617.03 552.93 608.45 550.33 605.00 550.00
C 592.18 550.54 589.26 547.42 590.00 536.00 C 590.74 524.58 587.85 516.27 597.00 513.00 C 606.16 509.73 619.39 516.84 621.00 507.00 C 622.61 497.16 620.25 487.84 621.00 478.00 C 621.75 468.16 620.55 457.83 621.00 448.00 C 621.45 438.17 620.56 427.71 621.00 418.00 C 621.44 408.29 619.43 398.77 623.00 390.00
C 631.33 390.00 639.67 390.00 648.00 390.00
C 661.02 390.00 673.92 390.00 687.00 390.00 Z"/>
</g>
<g fill="#FFFFFF" fill-opacity="0.72" stroke="None">
<path d="
M 5.00 372.00 
C 5.00 381.67 5.00 391.33 5.00 401.00
C 8.60 438.21 3.41 478.86 7.00 516.00
C 6.33 465.15 8.33 413.10 6.00 363.00
C 6.91 365.99 5.22 369.72 5.00 372.00 Z"/>
</g>
<g fill="#FFFFFF" fill-opacity="0.56" stroke="None">
<path d="
M 329.00 380.00 
C 336.00 380.00 343.00 380.00 350.00 380.00
C 350.66 380.17 348.02 377.14 345.00 378.00 C 341.98 378.86 339.11 378.58 336.00 378.00 C 332.89 377.43 330.22 379.64 329.00 380.00 Z"/>
</g>
<g fill="#FFFFFF" fill-opacity="0.30" stroke="None">
<path d="
M 158.00 380.00 
C 212.81 380.00 270.38 385.37 325.00 380.00
C 298.50 376.39 268.42 379.41 241.00 379.00 C 213.58 378.59 184.59 377.43 158.00 380.00 Z"/>
</g>
<g fill="#FFFFFF" fill-opacity="0.18" stroke="None">
<path d="
M 55.00 437.00 
C 55.12 437.97 55.87 438.50 56.00 439.00
C 56.00 422.33 56.00 405.67 56.00 389.00
C 54.61 403.41 53.13 421.84 55.00 437.00 Z"/>
</g>
<g fill="#FFFFFF" fill-opacity="0.42" stroke="None">
<path d="
M 648.00 390.00 
C 660.25 391.19 674.82 391.18 687.00 390.00
C 673.92 390.00 661.02 390.00 648.00 390.00 Z"/>
</g>
<g fill="#FFFFFF" fill-opacity="0.96" stroke="None">
<path d="
M 605.00 550.00 
C 609.16 549.83 620.03 546.89 621.00 551.00
C 621.00 557.67 621.00 564.33 621.00 571.00
C 611.05 570.50 601.42 571.46 592.00 573.00
C 591.76 574.34 591.47 575.78 591.00 577.00
C 590.17 579.91 592.47 588.52 592.00 593.00 C 591.53 597.48 591.13 606.61 593.00 608.00
C 594.74 609.02 595.76 608.71 598.00 609.00
C 605.20 608.59 614.08 607.23 622.00 608.00
C 622.53 609.28 621.03 609.86 621.00 611.00
C 621.66 616.70 617.43 632.10 626.00 633.00 C 634.57 633.90 644.32 633.00 653.00 633.00
C 651.20 633.46 655.39 629.29 657.00 631.00 C 658.62 632.71 662.78 629.42 663.00 629.00
C 664.22 623.11 662.90 616.92 664.00 611.00
C 664.41 608.81 664.67 609.99 668.00 610.00
C 669.43 609.65 683.18 607.44 679.00 609.00
C 678.84 609.06 679.00 610.00 679.00 610.00
C 690.92 608.85 700.08 611.39 712.00 609.00 C 723.91 606.61 716.79 594.43 719.00 583.00 C 721.21 571.57 706.73 571.06 697.00 572.00
C 686.12 573.05 673.60 573.29 662.00 573.00
C 662.56 570.48 660.81 566.70 663.00 565.00
C 661.83 556.50 659.77 545.12 673.00 549.00
C 672.92 550.26 670.94 549.56 671.00 551.00
C 705.93 549.67 745.66 550.90 769.25 522.25 C 792.83 493.59 795.29 458.99 777.92 426.08 C 760.55 393.18 720.67 390.00 687.00 390.00
C 674.82 391.18 660.25 391.19 648.00 390.00
C 639.67 390.00 631.33 390.00 623.00 390.00
C 619.43 398.77 621.44 408.29 621.00 418.00 C 620.56 427.71 621.45 438.17 621.00 448.00 C 620.55 457.83 621.75 468.16 621.00 478.00 C 620.25 487.84 622.61 497.16 621.00 507.00 C 619.39 516.84 606.16 509.73 597.00 513.00 C 587.85 516.27 590.74 524.58 590.00 536.00 C 589.26 547.42 592.18 550.54 605.00 550.00
M 702.00 429.00 
C 705.28 429.00 708.74 429.32 712.00 429.00
C 713.74 428.83 713.31 428.90 716.00 428.00 C 718.69 427.10 718.08 430.04 718.00 430.00
C 740.24 433.36 750.95 456.61 746.67 478.67 C 742.39 500.73 720.25 510.13 699.00 512.00
C 695.49 513.20 696.80 512.66 691.00 514.00 C 685.20 515.34 675.93 512.70 674.00 512.00
C 670.99 511.84 665.37 511.99 664.00 509.00
C 664.00 509.75 664.28 511.32 664.00 512.00
C 663.32 513.67 661.71 507.07 662.00 504.00 C 662.29 500.93 662.82 494.64 662.00 491.00 C 661.18 487.36 663.64 481.72 664.00 480.00
C 664.00 463.00 664.00 446.00 664.00 429.00
C 668.33 429.00 672.67 429.00 677.00 429.00
C 685.76 427.94 693.29 427.44 702.00 429.00 Z"/>
</g>
<g fill="#FFFFFF" fill-opacity="0.19" stroke="None">
<path d="
M 7.00 546.00 
C 6.12 537.64 7.00 525.61 7.00 516.00
C 3.41 478.86 8.60 438.21 5.00 401.00
C 5.00 424.69 3.40 451.63 5.00 475.00 C 6.60 498.37 -0.28 524.73 7.00 546.00 Z"/>
</g>
<g fill="#FFFFFF" fill-opacity="0.49" stroke="None">
<path d="
M 677.00 429.00 
C 685.33 429.00 693.67 429.00 702.00 429.00
C 693.29 427.44 685.76 427.94 677.00 429.00 Z"/>
</g>
<g fill="#FFFFFF" fill-opacity="0.48" stroke="None">
<path d="
M 712.00 429.00 
C 713.26 429.14 716.21 429.73 718.00 430.00
C 718.08 430.04 718.69 427.10 716.00 428.00 C 713.31 428.90 713.74 428.83 712.00 429.00 Z"/>
</g>
<g fill="#000000" fill-opacity="0.00" stroke="None">
<path d="
M 664.00 480.00 
C 664.00 484.00 664.00 488.00 664.00 492.00
C 664.00 497.67 664.00 503.33 664.00 509.00
C 665.37 511.99 670.99 511.84 674.00 512.00
C 682.06 512.44 690.97 512.71 699.00 512.00
C 720.25 510.13 742.39 500.73 746.67 478.67 C 750.95 456.61 740.24 433.36 718.00 430.00
C 716.21 429.73 713.26 429.14 712.00 429.00
C 708.74 429.32 705.28 429.00 702.00 429.00
C 693.67 429.00 685.33 429.00 677.00 429.00
C 672.67 429.00 668.33 429.00 664.00 429.00
C 664.00 446.00 664.00 463.00 664.00 480.00 Z"/>
</g>
<g fill="#FFFFFF" fill-opacity="0.67" stroke="None">
<path d="
M 664.00 512.00 
C 661.52 506.33 663.46 497.63 664.00 492.00
C 664.00 488.00 664.00 484.00 664.00 480.00
C 663.64 481.72 661.18 487.36 662.00 491.00 C 662.82 494.64 662.29 500.93 662.00 504.00 C 661.71 507.07 663.32 513.67 664.00 512.00 Z"/>
</g>
<g fill="#FFFFFF" fill-opacity="0.38" stroke="None">
<path d="
M 899.00 530.00 
C 900.83 516.92 900.24 501.78 899.00 489.00
C 897.75 501.89 898.24 517.06 899.00 530.00 Z"/>
</g>
<g fill="#FFFFFF" fill-opacity="0.26" stroke="None">
<path d="
M 664.00 512.00 
C 664.28 511.32 664.00 509.75 664.00 509.00
C 664.00 503.33 664.00 497.67 664.00 492.00
C 663.46 497.63 661.52 506.33 664.00 512.00 Z"/>
</g>
<g fill="#FFFFFF" fill-opacity="0.55" stroke="None">
<path d="
M 849.00 516.00 
C 851.18 509.36 851.57 500.50 849.00 493.00
C 849.68 500.28 849.58 508.71 849.00 516.00 Z"/>
</g>
<g fill="#FFFFFF" fill-opacity="0.59" stroke="None">
<path d="
M 699.00 512.00 
C 690.97 512.71 682.06 512.44 674.00 512.00
C 675.93 512.70 685.20 515.34 691.00 514.00 C 696.80 512.66 695.49 513.20 699.00 512.00 Z"/>
</g>
<g fill="#FFFFFF" fill-opacity="0.42" stroke="None">
<path d="
M 472.00 524.00 
C 472.14 522.51 472.82 520.24 473.00 518.00 C 473.17 515.77 471.08 514.40 471.00 514.00
C 471.00 517.51 471.70 520.83 472.00 524.00 Z"/>
</g>
<g fill="#FFFFFF" fill-opacity="0.31" stroke="None">
<path d="
M 605.00 550.00 
C 608.45 550.33 617.03 552.93 621.00 551.00
C 620.03 546.89 609.16 549.83 605.00 550.00 Z"/>
</g>
<g fill="#FFFFFF" fill-opacity="0.45" stroke="None">
<path d="
M 663.00 565.00 
C 663.14 565.98 662.90 567.01 663.00 568.00
C 662.18 564.70 665.64 560.71 664.00 556.00 C 662.37 551.30 667.62 551.13 671.00 551.00
C 670.94 549.56 672.92 550.26 673.00 549.00
C 659.77 545.12 661.83 556.50 663.00 565.00 Z"/>
</g>
<g fill="#FFFFFF" fill-opacity="0.29" stroke="None">
<path d="
M 697.00 572.00 
C 692.77 571.59 683.62 570.92 679.00 571.00 C 674.38 571.08 663.54 573.12 663.00 568.00
C 662.90 567.01 663.14 565.98 663.00 565.00
C 660.81 566.70 662.56 570.48 662.00 573.00
C 673.60 573.29 686.12 573.05 697.00 572.00 Z"/>
</g>
<g fill="#FFFFFF" fill-opacity="0.40" stroke="None">
<path d="
M 202.00 573.00 
C 167.35 570.64 131.73 573.76 97.00 571.00
C 103.55 573.15 113.44 573.36 122.00 574.00 C 130.56 574.64 140.26 573.61 149.00 574.00 C 157.74 574.39 167.25 573.61 176.00 574.00 C 184.75 574.40 193.99 573.78 202.00 573.00 Z"/>
</g>
<g fill="#FFFFFF" fill-opacity="0.23" stroke="None">
<path d="
M 253.00 574.00 
C 256.46 574.10 260.29 573.26 263.00 573.00
C 257.67 573.00 252.33 573.00 247.00 573.00
C 248.43 573.16 250.88 573.94 253.00 574.00 Z"/>
</g>
<g fill="#FFFFFF" fill-opacity="0.37" stroke="None">
<path d="
M 253.00 574.00 
C 262.53 575.23 273.68 575.06 284.00 575.00 C 294.32 574.94 304.67 574.93 315.00 575.00 C 325.33 575.07 335.67 574.75 346.00 575.00 C 356.33 575.25 367.78 574.42 378.00 575.00 C 388.22 575.58 399.10 573.65 409.00 575.00 C 418.90 576.35 430.31 572.41 439.00 574.00
C 426.71 568.64 408.92 574.80 395.00 573.00 C 381.08 571.20 365.32 573.78 351.00 573.00 C 336.68 572.22 321.48 573.29 307.00 573.00 C 292.52 572.71 277.53 573.00 263.00 573.00
C 260.29 573.26 256.46 574.10 253.00 574.00 Z"/>
</g>
<g fill="#FFFFFF" fill-opacity="0.32" stroke="None">
<path d="
M 593.00 608.00 
C 591.13 606.61 591.53 597.48 592.00 593.00 C 592.47 588.52 590.17 579.91 591.00 577.00
C 589.01 582.20 587.17 604.59 593.00 608.00 Z"/>
</g>
<g fill="#FFFFFF" fill-opacity="0.25" stroke="None">
<path d="
M 40.00 600.00 
C 37.95 596.88 35.14 593.47 31.00 590.00
C 33.88 593.44 36.29 596.83 40.00 600.00 Z"/>
</g>
<g fill="#FFFFFF" fill-opacity="0.37" stroke="None">
<path d="
M 598.00 609.00 
C 601.20 609.42 606.85 610.06 610.00 610.00 C 613.15 609.94 619.28 608.57 621.00 611.00
C 621.03 609.86 622.53 609.28 622.00 608.00
C 614.08 607.23 605.20 608.59 598.00 609.00 Z"/>
</g>
<g fill="#FFFFFF" fill-opacity="0.72" stroke="None">
<path d="
M 668.00 610.00 
C 671.96 610.01 675.26 609.28 679.00 609.00
C 683.18 607.44 669.43 609.65 668.00 610.00 Z"/>
</g>
<g fill="#FFFFFF" fill-opacity="0.11" stroke="None">
<path d="
M 664.00 611.00 
C 666.85 611.79 677.14 611.93 679.00 610.00
C 679.00 610.00 678.84 609.06 679.00 609.00
C 675.26 609.28 671.96 610.01 668.00 610.00
C 664.67 609.99 664.41 608.81 664.00 611.00 Z"/>
</g>
<g fill="#FFFFFF" fill-opacity="0.47" stroke="None">
<path d="
M 805.00 622.00 
C 801.61 625.78 797.88 629.58 794.00 633.00
C 793.97 634.14 792.47 634.72 793.00 636.00
C 798.44 630.82 805.51 625.54 809.00 619.00
C 807.68 619.83 806.21 620.94 805.00 622.00 Z"/>
</g>
<g fill="#FFFFFF" fill-opacity="0.63" stroke="None">
<path d="
M 428.00 622.00 
C 428.35 622.05 428.77 622.95 429.00 623.00
C 432.26 622.68 435.72 623.00 439.00 623.00
C 438.42 622.88 436.42 620.43 434.00 621.00 C 431.58 621.57 429.70 621.84 428.00 622.00 Z"/>
</g>
<g fill="#FFFFFF" fill-opacity="0.47" stroke="None">
<path d="
M 92.00 624.00 
C 93.66 624.03 95.34 624.00 97.00 624.00
C 96.65 623.93 96.08 621.34 94.04 622.04 C 91.99 622.73 92.47 623.93 92.00 624.00 Z"/>
</g>
<g fill="#FFFFFF" fill-opacity="0.63" stroke="None">
<path d="
M 285.00 623.00 
C 288.50 622.57 292.29 623.74 295.00 624.00
C 306.33 624.00 317.67 624.00 329.00 624.00
C 329.46 623.84 330.61 622.14 331.00 622.00
C 317.87 622.00 296.69 618.23 285.00 623.00 Z"/>
</g>
<g fill="#FFFFFF" fill-opacity="0.38" stroke="None">
<path d="
M 329.00 624.00 
C 361.97 624.00 396.85 626.11 429.00 623.00
C 428.77 622.95 428.35 622.05 428.00 622.00
C 412.18 619.72 394.97 622.88 379.00 622.00 C 363.03 621.12 346.97 622.00 331.00 622.00
C 330.61 622.14 329.46 623.84 329.00 624.00 Z"/>
</g>
<g fill="#FFFFFF" fill-opacity="0.42" stroke="None">
<path d="
M 283.00 624.00 
C 287.00 624.00 291.00 624.00 295.00 624.00
C 292.29 623.74 288.50 622.57 285.00 623.00
C 284.03 623.12 283.50 623.87 283.00 624.00 Z"/>
</g>
<g fill="#FFFFFF" fill-opacity="0.49" stroke="None">
<path d="
M 653.00 633.00 
C 656.33 633.00 659.67 633.00 663.00 633.00
C 663.20 631.71 662.74 630.28 663.00 629.00
C 662.78 629.42 658.62 632.71 657.00 631.00 C 655.39 629.29 651.20 633.46 653.00 633.00 Z"/>
</g>
<g fill="#FFFFFF" fill-opacity="0.42" stroke="None">
<path d="
M 699.00 674.00 
C 689.91 674.62 680.10 674.49 671.00 674.00
C 678.87 676.29 690.26 676.65 699.00 674.00 Z"/>
</g>
<g fill="#FFFFFF" fill-opacity="0.33" stroke="None">
<path d="
M 810.00 685.00 
C 811.79 683.76 813.38 682.23 815.00 681.00
C 812.94 681.92 811.25 683.53 810.00 685.00 Z"/>
</g>
<g fill="#FFFFFF" fill-opacity="0.45" stroke="None">
<path d="
M 695.00 723.00 
C 695.80 723.05 698.21 723.95 699.00 724.00
C 704.76 723.46 710.49 723.97 716.00 723.00
C 710.46 722.58 702.02 722.34 695.00 723.00 Z"/>
</g>
<g fill="#FFFFFF" fill-opacity="0.32" stroke="None">
<path d="
M 668.00 724.00 
C 677.74 724.94 688.86 724.95 699.00 724.00
C 698.21 723.95 695.80 723.05 695.00 723.00
C 686.10 723.84 676.64 723.19 668.00 724.00 Z"/>
</g>
</svg>